<svg xmlns="http://www.w3.org/2000/svg" viewBox="0 0 1000 1250" width="1000" height="1250"><rect width="1000" height="1250" fill="#3B4250"/><g fill="#F4F2ED" opacity=".8"><circle cx="16.9" cy="16.9" r="2.1"/><circle cx="50.7" cy="16.9" r="1.5"/><circle cx="84.5" cy="16.9" r="1"/><circle cx="118.2" cy="16.9" r="0.7"/><circle cx="219.6" cy="16.9" r="0.8"/><circle cx="253.4" cy="16.9" r="1.2"/><circle cx="287.2" cy="16.9" r="1.8"/><circle cx="320.9" cy="16.9" r="2.5"/><circle cx="354.7" cy="16.9" r="3.1"/><circle cx="388.5" cy="16.9" r="3.8"/><circle cx="422.3" cy="16.9" r="4.4"/><circle cx="456.1" cy="16.9" r="4.8"/><circle cx="489.9" cy="16.9" r="5.1"/><circle cx="523.6" cy="16.9" r="5.2"/><circle cx="557.4" cy="16.9" r="5.2"/><circle cx="591.2" cy="16.9" r="4.9"/><circle cx="625" cy="16.9" r="4.5"/><circle cx="658.8" cy="16.9" r="4"/><circle cx="692.6" cy="16.9" r="3.3"/><circle cx="726.4" cy="16.9" r="2.6"/><circle cx="760.1" cy="16.9" r="1.9"/><circle cx="793.9" cy="16.9" r="1.3"/><circle cx="827.7" cy="16.9" r="0.7"/><circle cx="962.8" cy="16.9" r="0.7"/><circle cx="996.6" cy="16.9" r="1.2"/><circle cx="16.9" cy="50.7" r="1.9"/><circle cx="50.7" cy="50.7" r="1.3"/><circle cx="84.5" cy="50.7" r="0.9"/><circle cx="118.2" cy="50.7" r="0.7"/><circle cx="152" cy="50.7" r="0.8"/><circle cx="185.8" cy="50.7" r="1"/><circle cx="219.6" cy="50.7" r="1.4"/><circle cx="253.4" cy="50.7" r="1.9"/><circle cx="287.2" cy="50.7" r="2.5"/><circle cx="320.9" cy="50.7" r="3.1"/><circle cx="354.7" cy="50.7" r="3.7"/><circle cx="388.5" cy="50.7" r="4.2"/><circle cx="422.3" cy="50.7" r="4.6"/><circle cx="456.1" cy="50.7" r="4.9"/><circle cx="489.9" cy="50.7" r="5"/><circle cx="523.6" cy="50.7" r="5"/><circle cx="557.4" cy="50.7" r="4.9"/><circle cx="591.2" cy="50.7" r="4.6"/><circle cx="625" cy="50.7" r="4.2"/><circle cx="658.8" cy="50.7" r="3.7"/><circle cx="692.6" cy="50.7" r="3.2"/><circle cx="726.4" cy="50.7" r="2.5"/><circle cx="760.1" cy="50.7" r="1.9"/><circle cx="793.9" cy="50.7" r="1.4"/><circle cx="827.7" cy="50.7" r="0.9"/><circle cx="861.5" cy="50.7" r="0.7"/><circle cx="895.3" cy="50.7" r="0.7"/><circle cx="929.1" cy="50.7" r="0.9"/><circle cx="962.8" cy="50.7" r="1.3"/><circle cx="996.6" cy="50.7" r="1.8"/><circle cx="16.9" cy="84.5" r="1.7"/><circle cx="50.7" cy="84.5" r="1.3"/><circle cx="84.5" cy="84.5" r="1"/><circle cx="118.2" cy="84.5" r="1.1"/><circle cx="152" cy="84.5" r="1.3"/><circle cx="185.8" cy="84.5" r="1.6"/><circle cx="219.6" cy="84.5" r="2.1"/><circle cx="253.4" cy="84.5" r="2.7"/><circle cx="287.2" cy="84.5" r="3.2"/><circle cx="320.9" cy="84.5" r="3.7"/><circle cx="354.7" cy="84.5" r="4.1"/><circle cx="388.5" cy="84.5" r="4.4"/><circle cx="422.3" cy="84.5" r="4.6"/><circle cx="456.1" cy="84.5" r="4.7"/><circle cx="489.9" cy="84.5" r="4.7"/><circle cx="523.6" cy="84.5" r="4.7"/><circle cx="557.4" cy="84.5" r="4.5"/><circle cx="591.2" cy="84.5" r="4.3"/><circle cx="625" cy="84.5" r="4"/><circle cx="658.8" cy="84.5" r="3.6"/><circle cx="692.6" cy="84.5" r="3.1"/><circle cx="726.4" cy="84.5" r="2.6"/><circle cx="760.1" cy="84.5" r="2.1"/><circle cx="793.9" cy="84.5" r="1.7"/><circle cx="827.7" cy="84.5" r="1.4"/><circle cx="861.5" cy="84.5" r="1.2"/><circle cx="895.3" cy="84.5" r="1.2"/><circle cx="929.1" cy="84.5" r="1.5"/><circle cx="962.8" cy="84.5" r="1.9"/><circle cx="996.6" cy="84.5" r="2.5"/><circle cx="16.9" cy="118.2" r="1.6"/><circle cx="50.7" cy="118.2" r="1.4"/><circle cx="84.5" cy="118.2" r="1.4"/><circle cx="118.2" cy="118.2" r="1.6"/><circle cx="152" cy="118.2" r="1.9"/><circle cx="185.8" cy="118.2" r="2.4"/><circle cx="219.6" cy="118.2" r="2.9"/><circle cx="253.4" cy="118.2" r="3.3"/><circle cx="287.2" cy="118.2" r="3.7"/><circle cx="320.9" cy="118.2" r="4"/><circle cx="354.7" cy="118.2" r="4.2"/><circle cx="388.5" cy="118.2" r="4.3"/><circle cx="422.3" cy="118.2" r="4.3"/><circle cx="456.1" cy="118.2" r="4.3"/><circle cx="489.9" cy="118.2" r="4.3"/><circle cx="523.6" cy="118.2" r="4.3"/><circle cx="557.4" cy="118.2" r="4.2"/><circle cx="591.2" cy="118.2" r="4.1"/><circle cx="625" cy="118.2" r="3.9"/><circle cx="658.8" cy="118.2" r="3.7"/><circle cx="692.6" cy="118.2" r="3.4"/><circle cx="726.4" cy="118.2" r="3"/><circle cx="760.1" cy="118.2" r="2.6"/><circle cx="793.9" cy="118.2" r="2.3"/><circle cx="827.7" cy="118.2" r="2"/><circle cx="861.5" cy="118.2" r="1.9"/><circle cx="895.3" cy="118.2" r="1.9"/><circle cx="929.1" cy="118.2" r="2.2"/><circle cx="962.8" cy="118.2" r="2.6"/><circle cx="996.6" cy="118.2" r="3.1"/><circle cx="16.9" cy="152" r="1.7"/><circle cx="50.7" cy="152" r="1.7"/><circle cx="84.5" cy="152" r="1.9"/><circle cx="118.2" cy="152" r="2.2"/><circle cx="152" cy="152" r="2.7"/><circle cx="185.8" cy="152" r="3.1"/><circle cx="219.6" cy="152" r="3.5"/><circle cx="253.4" cy="152" r="3.8"/><circle cx="287.2" cy="152" r="4"/><circle cx="320.9" cy="152" r="4"/><circle cx="354.7" cy="152" r="4"/><circle cx="388.5" cy="152" r="3.9"/><circle cx="422.3" cy="152" r="3.9"/><circle cx="456.1" cy="152" r="3.8"/><circle cx="489.9" cy="152" r="3.8"/><circle cx="523.6" cy="152" r="3.9"/><circle cx="557.4" cy="152" r="4"/><circle cx="591.2" cy="152" r="4"/><circle cx="625" cy="152" r="4.1"/><circle cx="658.8" cy="152" r="4"/><circle cx="692.6" cy="152" r="3.9"/><circle cx="726.4" cy="152" r="3.6"/><circle cx="760.1" cy="152" r="3.3"/><circle cx="793.9" cy="152" r="3"/><circle cx="827.7" cy="152" r="2.8"/><circle cx="861.5" cy="152" r="2.6"/><circle cx="895.3" cy="152" r="2.6"/><circle cx="929.1" cy="152" r="2.8"/><circle cx="962.8" cy="152" r="3.2"/><circle cx="996.6" cy="152" r="3.7"/><circle cx="16.9" cy="185.8" r="2"/><circle cx="50.7" cy="185.8" r="2.2"/><circle cx="84.5" cy="185.8" r="2.6"/><circle cx="118.2" cy="185.8" r="3"/><circle cx="152" cy="185.8" r="3.5"/><circle cx="185.8" cy="185.8" r="3.8"/><circle cx="219.6" cy="185.8" r="4"/><circle cx="253.4" cy="185.8" r="4.1"/><circle cx="287.2" cy="185.8" r="4"/><circle cx="320.9" cy="185.8" r="3.8"/><circle cx="354.7" cy="185.8" r="3.6"/><circle cx="388.5" cy="185.8" r="3.4"/><circle cx="422.3" cy="185.8" r="3.3"/><circle cx="456.1" cy="185.8" r="3.3"/><circle cx="489.9" cy="185.8" r="3.4"/><circle cx="523.6" cy="185.8" r="3.7"/><circle cx="557.4" cy="185.8" r="4"/><circle cx="591.2" cy="185.8" r="4.3"/><circle cx="625" cy="185.8" r="4.5"/><circle cx="658.8" cy="185.8" r="4.7"/><circle cx="692.6" cy="185.8" r="4.6"/><circle cx="726.4" cy="185.8" r="4.5"/><circle cx="760.1" cy="185.8" r="4.2"/><circle cx="793.9" cy="185.8" r="3.9"/><circle cx="827.7" cy="185.8" r="3.6"/><circle cx="861.5" cy="185.8" r="3.4"/><circle cx="895.3" cy="185.8" r="3.3"/><circle cx="929.1" cy="185.8" r="3.4"/><circle cx="962.8" cy="185.8" r="3.7"/><circle cx="996.6" cy="185.8" r="4.1"/><circle cx="16.9" cy="219.6" r="2.5"/><circle cx="50.7" cy="219.6" r="2.9"/><circle cx="84.5" cy="219.6" r="3.4"/><circle cx="118.2" cy="219.6" r="3.8"/><circle cx="152" cy="219.6" r="4.1"/><circle cx="185.8" cy="219.6" r="4.3"/><circle cx="219.6" cy="219.6" r="4.2"/><circle cx="253.4" cy="219.6" r="4"/><circle cx="287.2" cy="219.6" r="3.7"/><circle cx="320.9" cy="219.6" r="3.3"/><circle cx="354.7" cy="219.6" r="2.9"/><circle cx="388.5" cy="219.6" r="2.7"/><circle cx="422.3" cy="219.6" r="2.7"/><circle cx="456.1" cy="219.6" r="2.9"/><circle cx="489.9" cy="219.6" r="3.2"/><circle cx="523.6" cy="219.6" r="3.7"/><circle cx="557.4" cy="219.6" r="4.3"/><circle cx="591.2" cy="219.6" r="4.9"/><circle cx="625" cy="219.6" r="5.3"/><circle cx="658.8" cy="219.6" r="5.6"/><circle cx="692.6" cy="219.6" r="5.6"/><circle cx="726.4" cy="219.6" r="5.5"/><circle cx="760.1" cy="219.6" r="5.2"/><circle cx="793.9" cy="219.6" r="4.8"/><circle cx="827.7" cy="219.6" r="4.4"/><circle cx="861.5" cy="219.6" r="4"/><circle cx="895.3" cy="219.6" r="3.8"/><circle cx="929.1" cy="219.6" r="3.8"/><circle cx="962.8" cy="219.6" r="4"/><circle cx="996.6" cy="219.6" r="4.4"/><circle cx="16.9" cy="253.4" r="3.2"/><circle cx="50.7" cy="253.4" r="3.7"/><circle cx="84.5" cy="253.4" r="4.2"/><circle cx="118.2" cy="253.4" r="4.5"/><circle cx="152" cy="253.4" r="4.6"/><circle cx="185.8" cy="253.4" r="4.5"/><circle cx="219.6" cy="253.4" r="4.2"/><circle cx="253.4" cy="253.4" r="3.7"/><circle cx="287.2" cy="253.4" r="3.1"/><circle cx="320.9" cy="253.4" r="2.6"/><circle cx="354.7" cy="253.4" r="2.2"/><circle cx="388.5" cy="253.4" r="2.1"/><circle cx="422.3" cy="253.4" r="2.2"/><circle cx="456.1" cy="253.4" r="2.7"/><circle cx="489.9" cy="253.4" r="3.3"/><circle cx="523.6" cy="253.4" r="4.1"/><circle cx="557.4" cy="253.4" r="5"/><circle cx="591.2" cy="253.4" r="5.8"/><circle cx="625" cy="253.4" r="6.4"/><circle cx="658.8" cy="253.4" r="6.7"/><circle cx="692.6" cy="253.4" r="6.8"/><circle cx="726.4" cy="253.4" r="6.6"/><circle cx="760.1" cy="253.4" r="6.1"/><circle cx="793.9" cy="253.4" r="5.6"/><circle cx="827.7" cy="253.4" r="5"/><circle cx="861.5" cy="253.4" r="4.5"/><circle cx="895.3" cy="253.4" r="4.1"/><circle cx="929.1" cy="253.4" r="4"/><circle cx="962.8" cy="253.4" r="4.1"/><circle cx="996.6" cy="253.4" r="4.4"/><circle cx="16.9" cy="287.2" r="4"/><circle cx="50.7" cy="287.2" r="4.5"/><circle cx="84.5" cy="287.2" r="4.8"/><circle cx="118.2" cy="287.2" r="5"/><circle cx="152" cy="287.2" r="4.8"/><circle cx="185.8" cy="287.2" r="4.4"/><circle cx="219.6" cy="287.2" r="3.8"/><circle cx="253.4" cy="287.2" r="3"/><circle cx="287.2" cy="287.2" r="2.4"/><circle cx="320.9" cy="287.2" r="1.8"/><circle cx="354.7" cy="287.2" r="1.6"/><circle cx="388.5" cy="287.2" r="1.6"/><circle cx="422.3" cy="287.2" r="2.1"/><circle cx="456.1" cy="287.2" r="2.8"/><circle cx="489.9" cy="287.2" r="3.8"/><circle cx="523.6" cy="287.2" r="4.9"/><circle cx="557.4" cy="287.2" r="6"/><circle cx="591.2" cy="287.2" r="6.9"/><circle cx="625" cy="287.2" r="7.6"/><circle cx="658.8" cy="287.2" r="7.9"/><circle cx="692.6" cy="287.2" r="7.9"/><circle cx="726.4" cy="287.2" r="7.6"/><circle cx="760.1" cy="287.2" r="6.9"/><circle cx="793.9" cy="287.2" r="6.2"/><circle cx="827.7" cy="287.2" r="5.4"/><circle cx="861.5" cy="287.2" r="4.7"/><circle cx="895.3" cy="287.2" r="4.2"/><circle cx="929.1" cy="287.2" r="3.9"/><circle cx="962.8" cy="287.2" r="4"/><circle cx="996.6" cy="287.2" r="4.2"/><circle cx="16.9" cy="320.9" r="4.7"/><circle cx="50.7" cy="320.9" r="5.2"/><circle cx="84.5" cy="320.9" r="5.3"/><circle cx="118.2" cy="320.9" r="5.2"/><circle cx="152" cy="320.9" r="4.7"/><circle cx="185.8" cy="320.9" r="4"/><circle cx="219.6" cy="320.9" r="3.1"/><circle cx="253.4" cy="320.9" r="2.3"/><circle cx="287.2" cy="320.9" r="1.6"/><circle cx="320.9" cy="320.9" r="1.1"/><circle cx="354.7" cy="320.9" r="1.1"/><circle cx="388.5" cy="320.9" r="1.5"/><circle cx="422.3" cy="320.9" r="2.3"/><circle cx="456.1" cy="320.9" r="3.3"/><circle cx="489.9" cy="320.9" r="4.6"/><circle cx="523.6" cy="320.9" r="6"/><circle cx="557.4" cy="320.9" r="7.2"/><circle cx="591.2" cy="320.9" r="8.2"/><circle cx="625" cy="320.9" r="8.9"/><circle cx="658.8" cy="320.9" r="9.1"/><circle cx="692.6" cy="320.9" r="8.9"/><circle cx="726.4" cy="320.9" r="8.4"/><circle cx="760.1" cy="320.9" r="7.5"/><circle cx="793.9" cy="320.9" r="6.5"/><circle cx="827.7" cy="320.9" r="5.4"/><circle cx="861.5" cy="320.9" r="4.5"/><circle cx="895.3" cy="320.9" r="3.9"/><circle cx="929.1" cy="320.9" r="3.6"/><circle cx="962.8" cy="320.9" r="3.6"/><circle cx="996.6" cy="320.9" r="3.8"/><circle cx="16.9" cy="354.7" r="5.4"/><circle cx="50.7" cy="354.7" r="5.7"/><circle cx="84.5" cy="354.7" r="5.6"/><circle cx="118.2" cy="354.7" r="5.1"/><circle cx="152" cy="354.7" r="4.3"/><circle cx="185.8" cy="354.7" r="3.3"/><circle cx="219.6" cy="354.7" r="2.3"/><circle cx="253.4" cy="354.7" r="1.4"/><circle cx="287.2" cy="354.7" r="0.9"/><circle cx="320.9" cy="354.7" r="0.7"/><circle cx="354.7" cy="354.7" r="1"/><circle cx="388.5" cy="354.7" r="1.7"/><circle cx="422.3" cy="354.7" r="2.8"/><circle cx="456.1" cy="354.7" r="4.3"/><circle cx="489.9" cy="354.7" r="5.8"/><circle cx="523.6" cy="354.7" r="7.3"/><circle cx="557.4" cy="354.7" r="8.6"/><circle cx="591.2" cy="354.7" r="9.6"/><circle cx="625" cy="354.7" r="10.1"/><circle cx="658.8" cy="354.7" r="10.1"/><circle cx="692.6" cy="354.7" r="9.7"/><circle cx="726.4" cy="354.7" r="8.8"/><circle cx="760.1" cy="354.7" r="7.7"/><circle cx="793.9" cy="354.7" r="6.4"/><circle cx="827.7" cy="354.7" r="5.2"/><circle cx="861.5" cy="354.7" r="4.1"/><circle cx="895.3" cy="354.7" r="3.4"/><circle cx="929.1" cy="354.7" r="3"/><circle cx="962.8" cy="354.7" r="3"/><circle cx="996.6" cy="354.7" r="3.3"/><circle cx="16.9" cy="388.5" r="6"/><circle cx="50.7" cy="388.5" r="5.9"/><circle cx="84.5" cy="388.5" r="5.5"/><circle cx="118.2" cy="388.5" r="4.7"/><circle cx="152" cy="388.5" r="3.6"/><circle cx="185.8" cy="388.5" r="2.5"/><circle cx="219.6" cy="388.5" r="1.5"/><circle cx="253.4" cy="388.5" r="0.7"/><circle cx="354.7" cy="388.5" r="1.2"/><circle cx="388.5" cy="388.5" r="2.3"/><circle cx="422.3" cy="388.5" r="3.8"/><circle cx="456.1" cy="388.5" r="5.5"/><circle cx="489.9" cy="388.5" r="7.2"/><circle cx="523.6" cy="388.5" r="8.7"/><circle cx="557.4" cy="388.5" r="10"/><circle cx="591.2" cy="388.5" r="10.8"/><circle cx="625" cy="388.5" r="11.1"/><circle cx="658.8" cy="388.5" r="10.8"/><circle cx="692.6" cy="388.5" r="10.1"/><circle cx="726.4" cy="388.5" r="8.9"/><circle cx="760.1" cy="388.5" r="7.5"/><circle cx="793.9" cy="388.5" r="6"/><circle cx="827.7" cy="388.5" r="4.6"/><circle cx="861.5" cy="388.5" r="3.5"/><circle cx="895.3" cy="388.5" r="2.7"/><circle cx="929.1" cy="388.5" r="2.4"/><circle cx="962.8" cy="388.5" r="2.4"/><circle cx="996.6" cy="388.5" r="2.8"/><circle cx="16.9" cy="422.3" r="6.3"/><circle cx="50.7" cy="422.3" r="5.9"/><circle cx="84.5" cy="422.3" r="5.1"/><circle cx="118.2" cy="422.3" r="4"/><circle cx="152" cy="422.3" r="2.8"/><circle cx="185.8" cy="422.3" r="1.6"/><circle cx="219.6" cy="422.3" r="0.7"/><circle cx="320.9" cy="422.3" r="0.8"/><circle cx="354.7" cy="422.3" r="1.9"/><circle cx="388.5" cy="422.3" r="3.3"/><circle cx="422.3" cy="422.3" r="5"/><circle cx="456.1" cy="422.3" r="6.9"/><circle cx="489.9" cy="422.3" r="8.6"/><circle cx="523.6" cy="422.3" r="10"/><circle cx="557.4" cy="422.3" r="11.1"/><circle cx="591.2" cy="422.3" r="11.7"/><circle cx="625" cy="422.3" r="11.7"/><circle cx="658.8" cy="422.3" r="11.1"/><circle cx="692.6" cy="422.3" r="10.1"/><circle cx="726.4" cy="422.3" r="8.6"/><circle cx="760.1" cy="422.3" r="7"/><circle cx="793.9" cy="422.3" r="5.3"/><circle cx="827.7" cy="422.3" r="3.8"/><circle cx="861.5" cy="422.3" r="2.6"/><circle cx="895.3" cy="422.3" r="1.9"/><circle cx="929.1" cy="422.3" r="1.7"/><circle cx="962.8" cy="422.3" r="1.9"/><circle cx="996.6" cy="422.3" r="2.4"/><circle cx="16.9" cy="456.1" r="6.3"/><circle cx="50.7" cy="456.1" r="5.5"/><circle cx="84.5" cy="456.1" r="4.5"/><circle cx="118.2" cy="456.1" r="3.2"/><circle cx="152" cy="456.1" r="1.9"/><circle cx="185.8" cy="456.1" r="0.8"/><circle cx="320.9" cy="456.1" r="1.5"/><circle cx="354.7" cy="456.1" r="2.9"/><circle cx="388.5" cy="456.1" r="4.6"/><circle cx="422.3" cy="456.1" r="6.5"/><circle cx="456.1" cy="456.1" r="8.3"/><circle cx="489.9" cy="456.1" r="9.9"/><circle cx="523.6" cy="456.1" r="11.1"/><circle cx="557.4" cy="456.1" r="11.9"/><circle cx="591.2" cy="456.1" r="12.2"/><circle cx="625" cy="456.1" r="11.8"/><circle cx="658.8" cy="456.1" r="11"/><circle cx="692.6" cy="456.1" r="9.7"/><circle cx="726.4" cy="456.1" r="8"/><circle cx="760.1" cy="456.1" r="6.2"/><circle cx="793.9" cy="456.1" r="4.4"/><circle cx="827.7" cy="456.1" r="2.9"/><circle cx="861.5" cy="456.1" r="1.7"/><circle cx="895.3" cy="456.1" r="1.1"/><circle cx="929.1" cy="456.1" r="1.1"/><circle cx="962.8" cy="456.1" r="1.5"/><circle cx="996.6" cy="456.1" r="2.2"/><circle cx="16.9" cy="489.9" r="5.9"/><circle cx="50.7" cy="489.9" r="4.9"/><circle cx="84.5" cy="489.9" r="3.6"/><circle cx="118.2" cy="489.9" r="2.3"/><circle cx="152" cy="489.9" r="1.1"/><circle cx="287.2" cy="489.9" r="1.2"/><circle cx="320.9" cy="489.9" r="2.5"/><circle cx="354.7" cy="489.9" r="4.2"/><circle cx="388.5" cy="489.9" r="6"/><circle cx="422.3" cy="489.9" r="7.8"/><circle cx="456.1" cy="489.9" r="9.5"/><circle cx="489.9" cy="489.9" r="10.9"/><circle cx="523.6" cy="489.9" r="11.8"/><circle cx="557.4" cy="489.9" r="12.3"/><circle cx="591.2" cy="489.9" r="12.2"/><circle cx="625" cy="489.9" r="11.6"/><circle cx="658.8" cy="489.9" r="10.5"/><circle cx="692.6" cy="489.9" r="8.9"/><circle cx="726.4" cy="489.9" r="7.1"/><circle cx="760.1" cy="489.9" r="5.2"/><circle cx="793.9" cy="489.9" r="3.4"/><circle cx="827.7" cy="489.9" r="1.9"/><circle cx="861.5" cy="489.9" r="1"/><circle cx="929.1" cy="489.9" r="0.7"/><circle cx="962.8" cy="489.9" r="1.3"/><circle cx="996.6" cy="489.9" r="2.2"/><circle cx="16.9" cy="523.6" r="5.4"/><circle cx="50.7" cy="523.6" r="4.1"/><circle cx="84.5" cy="523.6" r="2.7"/><circle cx="118.2" cy="523.6" r="1.4"/><circle cx="253.4" cy="523.6" r="0.9"/><circle cx="287.2" cy="523.6" r="2.2"/><circle cx="320.9" cy="523.6" r="3.8"/><circle cx="354.7" cy="523.6" r="5.6"/><circle cx="388.5" cy="523.6" r="7.4"/><circle cx="422.3" cy="523.6" r="9"/><circle cx="456.1" cy="523.6" r="10.4"/><circle cx="489.9" cy="523.6" r="11.4"/><circle cx="523.6" cy="523.6" r="12"/><circle cx="557.4" cy="523.6" r="12.2"/><circle cx="591.2" cy="523.6" r="11.8"/><circle cx="625" cy="523.6" r="10.9"/><circle cx="658.8" cy="523.6" r="9.6"/><circle cx="692.6" cy="523.6" r="8"/><circle cx="726.4" cy="523.6" r="6.1"/><circle cx="760.1" cy="523.6" r="4.2"/><circle cx="793.9" cy="523.6" r="2.5"/><circle cx="827.7" cy="523.6" r="1.2"/><circle cx="962.8" cy="523.6" r="1.4"/><circle cx="996.6" cy="523.6" r="2.5"/><circle cx="16.9" cy="557.4" r="4.6"/><circle cx="50.7" cy="557.4" r="3.2"/><circle cx="84.5" cy="557.4" r="1.8"/><circle cx="118.2" cy="557.4" r="0.7"/><circle cx="219.6" cy="557.4" r="0.8"/><circle cx="253.4" cy="557.4" r="1.9"/><circle cx="287.2" cy="557.4" r="3.5"/><circle cx="320.9" cy="557.4" r="5.2"/><circle cx="354.7" cy="557.4" r="6.9"/><circle cx="388.5" cy="557.4" r="8.5"/><circle cx="422.3" cy="557.4" r="9.9"/><circle cx="456.1" cy="557.4" r="10.9"/><circle cx="489.9" cy="557.4" r="11.5"/><circle cx="523.6" cy="557.4" r="11.8"/><circle cx="557.4" cy="557.4" r="11.6"/><circle cx="591.2" cy="557.4" r="11"/><circle cx="625" cy="557.4" r="10"/><circle cx="658.8" cy="557.4" r="8.7"/><circle cx="692.6" cy="557.4" r="7"/><circle cx="726.4" cy="557.4" r="5.2"/><circle cx="760.1" cy="557.4" r="3.4"/><circle cx="793.9" cy="557.4" r="1.8"/><circle cx="827.7" cy="557.4" r="0.6"/><circle cx="929.1" cy="557.4" r="0.7"/><circle cx="962.8" cy="557.4" r="1.8"/><circle cx="996.6" cy="557.4" r="3.1"/><circle cx="16.9" cy="591.2" r="3.7"/><circle cx="50.7" cy="591.2" r="2.2"/><circle cx="84.5" cy="591.2" r="1"/><circle cx="185.8" cy="591.2" r="0.6"/><circle cx="219.6" cy="591.2" r="1.7"/><circle cx="253.4" cy="591.2" r="3.2"/><circle cx="287.2" cy="591.2" r="4.9"/><circle cx="320.9" cy="591.2" r="6.5"/><circle cx="354.7" cy="591.2" r="8"/><circle cx="388.5" cy="591.2" r="9.3"/><circle cx="422.3" cy="591.2" r="10.2"/><circle cx="456.1" cy="591.2" r="10.8"/><circle cx="489.9" cy="591.2" r="11.1"/><circle cx="523.6" cy="591.2" r="11.1"/><circle cx="557.4" cy="591.2" r="10.7"/><circle cx="591.2" cy="591.2" r="10.1"/><circle cx="625" cy="591.2" r="9.1"/><circle cx="658.8" cy="591.2" r="7.7"/><circle cx="692.6" cy="591.2" r="6.2"/><circle cx="726.4" cy="591.2" r="4.5"/><circle cx="760.1" cy="591.2" r="2.8"/><circle cx="793.9" cy="591.2" r="1.4"/><circle cx="929.1" cy="591.2" r="1.3"/><circle cx="962.8" cy="591.2" r="2.5"/><circle cx="996.6" cy="591.2" r="4"/><circle cx="16.9" cy="625" r="2.7"/><circle cx="50.7" cy="625" r="1.4"/><circle cx="185.8" cy="625" r="1.5"/><circle cx="219.6" cy="625" r="2.9"/><circle cx="253.4" cy="625" r="4.5"/><circle cx="287.2" cy="625" r="6.2"/><circle cx="320.9" cy="625" r="7.6"/><circle cx="354.7" cy="625" r="8.8"/><circle cx="388.5" cy="625" r="9.6"/><circle cx="422.3" cy="625" r="10.1"/><circle cx="456.1" cy="625" r="10.3"/><circle cx="489.9" cy="625" r="10.3"/><circle cx="523.6" cy="625" r="10.1"/><circle cx="557.4" cy="625" r="9.7"/><circle cx="591.2" cy="625" r="9.1"/><circle cx="625" cy="625" r="8.2"/><circle cx="658.8" cy="625" r="7"/><circle cx="692.6" cy="625" r="5.6"/><circle cx="726.4" cy="625" r="4"/><circle cx="760.1" cy="625" r="2.6"/><circle cx="793.9" cy="625" r="1.3"/><circle cx="827.7" cy="625" r="0.6"/><circle cx="895.3" cy="625" r="1"/><circle cx="929.1" cy="625" r="2.1"/><circle cx="962.8" cy="625" r="3.5"/><circle cx="996.6" cy="625" r="5"/><circle cx="16.9" cy="658.8" r="1.8"/><circle cx="50.7" cy="658.8" r="0.8"/><circle cx="152" cy="658.8" r="1.2"/><circle cx="185.8" cy="658.8" r="2.6"/><circle cx="219.6" cy="658.8" r="4.2"/><circle cx="253.4" cy="658.8" r="5.8"/><circle cx="287.2" cy="658.8" r="7.3"/><circle cx="320.9" cy="658.8" r="8.4"/><circle cx="354.7" cy="658.8" r="9"/><circle cx="388.5" cy="658.8" r="9.4"/><circle cx="422.3" cy="658.8" r="9.4"/><circle cx="456.1" cy="658.8" r="9.3"/><circle cx="489.9" cy="658.8" r="9.2"/><circle cx="523.6" cy="658.8" r="9"/><circle cx="557.4" cy="658.8" r="8.7"/><circle cx="591.2" cy="658.8" r="8.3"/><circle cx="625" cy="658.8" r="7.6"/><circle cx="658.8" cy="658.8" r="6.6"/><circle cx="692.6" cy="658.8" r="5.4"/><circle cx="726.4" cy="658.8" r="4"/><circle cx="760.1" cy="658.8" r="2.7"/><circle cx="793.9" cy="658.8" r="1.7"/><circle cx="827.7" cy="658.8" r="1.1"/><circle cx="861.5" cy="658.8" r="1.2"/><circle cx="895.3" cy="658.8" r="1.9"/><circle cx="929.1" cy="658.8" r="3.2"/><circle cx="962.8" cy="658.8" r="4.7"/><circle cx="996.6" cy="658.8" r="6.3"/><circle cx="16.9" cy="692.6" r="1.1"/><circle cx="118.2" cy="692.6" r="1"/><circle cx="152" cy="692.6" r="2.2"/><circle cx="185.8" cy="692.6" r="3.8"/><circle cx="219.6" cy="692.6" r="5.4"/><circle cx="253.4" cy="692.6" r="6.9"/><circle cx="287.2" cy="692.6" r="8"/><circle cx="320.9" cy="692.6" r="8.6"/><circle cx="354.7" cy="692.6" r="8.8"/><circle cx="388.5" cy="692.6" r="8.7"/><circle cx="422.3" cy="692.6" r="8.4"/><circle cx="456.1" cy="692.6" r="8.2"/><circle cx="489.9" cy="692.6" r="8"/><circle cx="523.6" cy="692.6" r="8"/><circle cx="557.4" cy="692.6" r="8"/><circle cx="591.2" cy="692.6" r="7.8"/><circle cx="625" cy="692.6" r="7.4"/><circle cx="658.8" cy="692.6" r="6.7"/><circle cx="692.6" cy="692.6" r="5.6"/><circle cx="726.4" cy="692.6" r="4.4"/><circle cx="760.1" cy="692.6" r="3.2"/><circle cx="793.9" cy="692.6" r="2.3"/><circle cx="827.7" cy="692.6" r="1.9"/><circle cx="861.5" cy="692.6" r="2.2"/><circle cx="895.3" cy="692.6" r="3"/><circle cx="929.1" cy="692.6" r="4.4"/><circle cx="962.8" cy="692.6" r="6"/><circle cx="996.6" cy="692.6" r="7.5"/><circle cx="84.5" cy="726.4" r="0.7"/><circle cx="118.2" cy="726.4" r="1.7"/><circle cx="152" cy="726.4" r="3.3"/><circle cx="185.8" cy="726.4" r="5"/><circle cx="219.6" cy="726.4" r="6.5"/><circle cx="253.4" cy="726.4" r="7.7"/><circle cx="287.2" cy="726.4" r="8.4"/><circle cx="320.9" cy="726.4" r="8.5"/><circle cx="354.7" cy="726.4" r="8.2"/><circle cx="388.5" cy="726.4" r="7.7"/><circle cx="422.3" cy="726.4" r="7.2"/><circle cx="456.1" cy="726.4" r="7"/><circle cx="489.9" cy="726.4" r="7.1"/><circle cx="523.6" cy="726.4" r="7.3"/><circle cx="557.4" cy="726.4" r="7.7"/><circle cx="591.2" cy="726.4" r="7.9"/><circle cx="625" cy="726.4" r="7.8"/><circle cx="658.8" cy="726.4" r="7.2"/><circle cx="692.6" cy="726.4" r="6.3"/><circle cx="726.4" cy="726.4" r="5.2"/><circle cx="760.1" cy="726.4" r="4"/><circle cx="793.9" cy="726.4" r="3.2"/><circle cx="827.7" cy="726.4" r="2.9"/><circle cx="861.5" cy="726.4" r="3.3"/><circle cx="895.3" cy="726.4" r="4.3"/><circle cx="929.1" cy="726.4" r="5.7"/><circle cx="962.8" cy="726.4" r="7.3"/><circle cx="996.6" cy="726.4" r="8.8"/><circle cx="84.5" cy="760.1" r="1.3"/><circle cx="118.2" cy="760.1" r="2.7"/><circle cx="152" cy="760.1" r="4.4"/><circle cx="185.8" cy="760.1" r="6.1"/><circle cx="219.6" cy="760.1" r="7.4"/><circle cx="253.4" cy="760.1" r="8.2"/><circle cx="287.2" cy="760.1" r="8.3"/><circle cx="320.9" cy="760.1" r="7.9"/><circle cx="354.7" cy="760.1" r="7.2"/><circle cx="388.5" cy="760.1" r="6.5"/><circle cx="422.3" cy="760.1" r="6.1"/><circle cx="456.1" cy="760.1" r="6"/><circle cx="489.9" cy="760.1" r="6.5"/><circle cx="523.6" cy="760.1" r="7.2"/><circle cx="557.4" cy="760.1" r="8"/><circle cx="591.2" cy="760.1" r="8.5"/><circle cx="625" cy="760.1" r="8.6"/><circle cx="658.8" cy="760.1" r="8.2"/><circle cx="692.6" cy="760.1" r="7.3"/><circle cx="726.4" cy="760.1" r="6.1"/><circle cx="760.1" cy="760.1" r="5"/><circle cx="793.9" cy="760.1" r="4.2"/><circle cx="827.7" cy="760.1" r="4"/><circle cx="861.5" cy="760.1" r="4.4"/><circle cx="895.3" cy="760.1" r="5.5"/><circle cx="929.1" cy="760.1" r="7"/><circle cx="962.8" cy="760.1" r="8.5"/><circle cx="996.6" cy="760.1" r="9.9"/><circle cx="50.7" cy="793.9" r="0.8"/><circle cx="84.5" cy="793.9" r="2.1"/><circle cx="118.2" cy="793.9" r="3.8"/><circle cx="152" cy="793.9" r="5.5"/><circle cx="185.8" cy="793.9" r="7"/><circle cx="219.6" cy="793.9" r="8"/><circle cx="253.4" cy="793.9" r="8.2"/><circle cx="287.2" cy="793.9" r="7.9"/><circle cx="320.9" cy="793.9" r="7.1"/><circle cx="354.7" cy="793.9" r="6.1"/><circle cx="388.5" cy="793.9" r="5.4"/><circle cx="422.3" cy="793.9" r="5.1"/><circle cx="456.1" cy="793.9" r="5.5"/><circle cx="489.9" cy="793.9" r="6.4"/><circle cx="523.6" cy="793.9" r="7.6"/><circle cx="557.4" cy="793.9" r="8.8"/><circle cx="591.2" cy="793.9" r="9.6"/><circle cx="625" cy="793.9" r="9.9"/><circle cx="658.8" cy="793.9" r="9.4"/><circle cx="692.6" cy="793.9" r="8.5"/><circle cx="726.4" cy="793.9" r="7.2"/><circle cx="760.1" cy="793.9" r="6"/><circle cx="793.9" cy="793.9" r="5.2"/><circle cx="827.7" cy="793.9" r="5"/><circle cx="861.5" cy="793.9" r="5.6"/><circle cx="895.3" cy="793.9" r="6.7"/><circle cx="929.1" cy="793.9" r="8.2"/><circle cx="962.8" cy="793.9" r="9.7"/><circle cx="996.6" cy="793.9" r="10.8"/><circle cx="50.7" cy="827.7" r="1.4"/><circle cx="84.5" cy="827.7" r="3"/><circle cx="118.2" cy="827.7" r="4.8"/><circle cx="152" cy="827.7" r="6.5"/><circle cx="185.8" cy="827.7" r="7.7"/><circle cx="219.6" cy="827.7" r="8.2"/><circle cx="253.4" cy="827.7" r="8"/><circle cx="287.2" cy="827.7" r="7.2"/><circle cx="320.9" cy="827.7" r="6.1"/><circle cx="354.7" cy="827.7" r="5.1"/><circle cx="388.5" cy="827.7" r="4.5"/><circle cx="422.3" cy="827.7" r="4.7"/><circle cx="456.1" cy="827.7" r="5.6"/><circle cx="489.9" cy="827.7" r="7"/><circle cx="523.6" cy="827.7" r="8.7"/><circle cx="557.4" cy="827.7" r="10.2"/><circle cx="591.2" cy="827.7" r="11.2"/><circle cx="625" cy="827.7" r="11.4"/><circle cx="658.8" cy="827.7" r="10.8"/><circle cx="692.6" cy="827.7" r="9.6"/><circle cx="726.4" cy="827.7" r="8.2"/><circle cx="760.1" cy="827.7" r="6.9"/><circle cx="793.9" cy="827.7" r="6.1"/><circle cx="827.7" cy="827.7" r="6"/><circle cx="861.5" cy="827.7" r="6.6"/><circle cx="895.3" cy="827.7" r="7.8"/><circle cx="929.1" cy="827.7" r="9.2"/><circle cx="962.8" cy="827.7" r="10.6"/><circle cx="996.6" cy="827.7" r="11.6"/><circle cx="16.9" cy="861.5" r="0.8"/><circle cx="50.7" cy="861.5" r="2.2"/><circle cx="84.5" cy="861.5" r="4"/><circle cx="118.2" cy="861.5" r="5.8"/><circle cx="152" cy="861.5" r="7.3"/><circle cx="185.8" cy="861.5" r="8.2"/><circle cx="219.6" cy="861.5" r="8.3"/><circle cx="253.4" cy="861.5" r="7.6"/><circle cx="287.2" cy="861.5" r="6.5"/><circle cx="320.9" cy="861.5" r="5.3"/><circle cx="354.7" cy="861.5" r="4.4"/><circle cx="388.5" cy="861.5" r="4.1"/><circle cx="422.3" cy="861.5" r="4.8"/><circle cx="456.1" cy="861.5" r="6.2"/><circle cx="489.9" cy="861.5" r="8.2"/><circle cx="523.6" cy="861.5" r="10.3"/><circle cx="557.4" cy="861.5" r="12"/><circle cx="591.2" cy="861.5" r="12.9"/><circle cx="625" cy="861.5" r="12.9"/><circle cx="658.8" cy="861.5" r="12.1"/><circle cx="692.6" cy="861.5" r="10.6"/><circle cx="726.4" cy="861.5" r="9"/><circle cx="760.1" cy="861.5" r="7.6"/><circle cx="793.9" cy="861.5" r="6.8"/><circle cx="827.7" cy="861.5" r="6.8"/><circle cx="861.5" cy="861.5" r="7.5"/><circle cx="895.3" cy="861.5" r="8.7"/><circle cx="929.1" cy="861.5" r="10.1"/><circle cx="962.8" cy="861.5" r="11.3"/><circle cx="996.6" cy="861.5" r="12"/><circle cx="16.9" cy="895.3" r="1.5"/><circle cx="50.7" cy="895.3" r="3.1"/><circle cx="84.5" cy="895.3" r="5"/><circle cx="118.2" cy="895.3" r="6.7"/><circle cx="152" cy="895.3" r="8"/><circle cx="185.8" cy="895.3" r="8.4"/><circle cx="219.6" cy="895.3" r="8.1"/><circle cx="253.4" cy="895.3" r="7.1"/><circle cx="287.2" cy="895.3" r="5.9"/><circle cx="320.9" cy="895.3" r="4.7"/><circle cx="354.7" cy="895.3" r="4"/><circle cx="388.5" cy="895.3" r="4.3"/><circle cx="422.3" cy="895.3" r="5.5"/><circle cx="456.1" cy="895.3" r="7.5"/><circle cx="489.9" cy="895.3" r="10"/><circle cx="523.6" cy="895.3" r="12.3"/><circle cx="557.4" cy="895.3" r="13.9"/><circle cx="591.2" cy="895.3" r="14.6"/><circle cx="625" cy="895.3" r="14.3"/><circle cx="658.8" cy="895.3" r="13"/><circle cx="692.6" cy="895.3" r="11.3"/><circle cx="726.4" cy="895.3" r="9.5"/><circle cx="760.1" cy="895.3" r="8"/><circle cx="793.9" cy="895.3" r="7.3"/><circle cx="827.7" cy="895.3" r="7.4"/><circle cx="861.5" cy="895.3" r="8.2"/><circle cx="895.3" cy="895.3" r="9.4"/><circle cx="929.1" cy="895.3" r="10.8"/><circle cx="962.8" cy="895.3" r="11.8"/><circle cx="996.6" cy="895.3" r="12.3"/><circle cx="16.9" cy="929.1" r="2.3"/><circle cx="50.7" cy="929.1" r="4.1"/><circle cx="84.5" cy="929.1" r="6"/><circle cx="118.2" cy="929.1" r="7.6"/><circle cx="152" cy="929.1" r="8.5"/><circle cx="185.8" cy="929.1" r="8.6"/><circle cx="219.6" cy="929.1" r="7.9"/><circle cx="253.4" cy="929.1" r="6.8"/><circle cx="287.2" cy="929.1" r="5.4"/><circle cx="320.9" cy="929.1" r="4.5"/><circle cx="354.7" cy="929.1" r="4.2"/><circle cx="388.5" cy="929.1" r="5"/><circle cx="422.3" cy="929.1" r="6.7"/><circle cx="456.1" cy="929.1" r="9.2"/><circle cx="489.9" cy="929.1" r="12"/><circle cx="523.6" cy="929.1" r="14.4"/><circle cx="557.4" cy="929.1" r="15.8"/><circle cx="591.2" cy="929.1" r="16"/><circle cx="625" cy="929.1" r="15.2"/><circle cx="658.8" cy="929.1" r="13.6"/><circle cx="692.6" cy="929.1" r="11.5"/><circle cx="726.4" cy="929.1" r="9.6"/><circle cx="760.1" cy="929.1" r="8.2"/><circle cx="793.9" cy="929.1" r="7.6"/><circle cx="827.7" cy="929.1" r="7.8"/><circle cx="861.5" cy="929.1" r="8.8"/><circle cx="895.3" cy="929.1" r="10.1"/><circle cx="929.1" cy="929.1" r="11.3"/><circle cx="962.8" cy="929.1" r="12.1"/><circle cx="996.6" cy="929.1" r="12.3"/><circle cx="16.9" cy="962.8" r="3.2"/><circle cx="50.7" cy="962.8" r="5.1"/><circle cx="84.5" cy="962.8" r="7"/><circle cx="118.2" cy="962.8" r="8.3"/><circle cx="152" cy="962.8" r="8.9"/><circle cx="185.8" cy="962.8" r="8.7"/><circle cx="219.6" cy="962.8" r="7.8"/><circle cx="253.4" cy="962.8" r="6.5"/><circle cx="287.2" cy="962.8" r="5.3"/><circle cx="320.9" cy="962.8" r="4.6"/><circle cx="354.7" cy="962.8" r="4.8"/><circle cx="388.5" cy="962.8" r="6.1"/><circle cx="422.3" cy="962.8" r="8.3"/><circle cx="456.1" cy="962.8" r="11.2"/><circle cx="489.9" cy="962.8" r="14.1"/><circle cx="523.6" cy="962.8" r="16.3"/><circle cx="557.4" cy="962.8" r="16.9"/><circle cx="591.2" cy="962.8" r="16.9"/><circle cx="625" cy="962.8" r="15.5"/><circle cx="658.8" cy="962.8" r="13.5"/><circle cx="692.6" cy="962.8" r="11.3"/><circle cx="726.4" cy="962.8" r="9.4"/><circle cx="760.1" cy="962.8" r="8.1"/><circle cx="793.9" cy="962.8" r="7.8"/><circle cx="827.7" cy="962.8" r="8.2"/><circle cx="861.5" cy="962.8" r="9.3"/><circle cx="895.3" cy="962.8" r="10.6"/><circle cx="929.1" cy="962.8" r="11.6"/><circle cx="962.8" cy="962.8" r="12.2"/><circle cx="996.6" cy="962.8" r="12"/><circle cx="16.9" cy="996.6" r="4.2"/><circle cx="50.7" cy="996.6" r="6.2"/><circle cx="84.5" cy="996.6" r="7.9"/><circle cx="118.2" cy="996.6" r="9"/><circle cx="152" cy="996.6" r="9.4"/><circle cx="185.8" cy="996.6" r="8.9"/><circle cx="219.6" cy="996.6" r="7.8"/><circle cx="253.4" cy="996.6" r="6.6"/><circle cx="287.2" cy="996.6" r="5.5"/><circle cx="320.9" cy="996.6" r="5.2"/><circle cx="354.7" cy="996.6" r="5.8"/><circle cx="388.5" cy="996.6" r="7.5"/><circle cx="422.3" cy="996.6" r="9.9"/><circle cx="456.1" cy="996.6" r="12.9"/><circle cx="489.9" cy="996.6" r="15.7"/><circle cx="523.6" cy="996.6" r="16.9"/><circle cx="557.4" cy="996.6" r="16.9"/><circle cx="591.2" cy="996.6" r="16.9"/><circle cx="625" cy="996.6" r="15.2"/><circle cx="658.8" cy="996.6" r="13"/><circle cx="692.6" cy="996.6" r="10.7"/><circle cx="726.4" cy="996.6" r="9"/><circle cx="760.1" cy="996.6" r="8"/><circle cx="793.9" cy="996.6" r="7.9"/><circle cx="827.7" cy="996.6" r="8.6"/><circle cx="861.5" cy="996.6" r="9.7"/><circle cx="895.3" cy="996.6" r="11"/><circle cx="929.1" cy="996.6" r="11.8"/><circle cx="962.8" cy="996.6" r="12.1"/><circle cx="996.6" cy="996.6" r="11.5"/><circle cx="16.9" cy="1030.4" r="5.3"/><circle cx="50.7" cy="1030.4" r="7.3"/><circle cx="84.5" cy="1030.4" r="8.8"/><circle cx="118.2" cy="1030.4" r="9.7"/><circle cx="152" cy="1030.4" r="9.8"/><circle cx="185.8" cy="1030.4" r="9.1"/><circle cx="219.6" cy="1030.4" r="8"/><circle cx="253.4" cy="1030.4" r="6.8"/><circle cx="287.2" cy="1030.4" r="6"/><circle cx="320.9" cy="1030.4" r="6"/><circle cx="354.7" cy="1030.4" r="6.9"/><circle cx="388.5" cy="1030.4" r="8.8"/><circle cx="422.3" cy="1030.4" r="11.4"/><circle cx="456.1" cy="1030.4" r="14.1"/><circle cx="489.9" cy="1030.4" r="16.4"/><circle cx="523.6" cy="1030.4" r="16.9"/><circle cx="557.4" cy="1030.4" r="16.9"/><circle cx="591.2" cy="1030.4" r="16.3"/><circle cx="625" cy="1030.4" r="14.3"/><circle cx="658.8" cy="1030.4" r="12"/><circle cx="692.6" cy="1030.4" r="9.9"/><circle cx="726.4" cy="1030.4" r="8.4"/><circle cx="760.1" cy="1030.4" r="7.8"/><circle cx="793.9" cy="1030.4" r="8"/><circle cx="827.7" cy="1030.4" r="8.9"/><circle cx="861.5" cy="1030.4" r="10.2"/><circle cx="895.3" cy="1030.4" r="11.3"/><circle cx="929.1" cy="1030.4" r="11.9"/><circle cx="962.8" cy="1030.4" r="11.7"/><circle cx="996.6" cy="1030.4" r="10.9"/><circle cx="16.9" cy="1064.2" r="6.5"/><circle cx="50.7" cy="1064.2" r="8.3"/><circle cx="84.5" cy="1064.2" r="9.7"/><circle cx="118.2" cy="1064.2" r="10.3"/><circle cx="152" cy="1064.2" r="10.2"/><circle cx="185.8" cy="1064.2" r="9.4"/><circle cx="219.6" cy="1064.2" r="8.3"/><circle cx="253.4" cy="1064.2" r="7.2"/><circle cx="287.2" cy="1064.2" r="6.6"/><circle cx="320.9" cy="1064.2" r="6.9"/><circle cx="354.7" cy="1064.2" r="8"/><circle cx="388.5" cy="1064.2" r="9.9"/><circle cx="422.3" cy="1064.2" r="12.3"/><circle cx="456.1" cy="1064.2" r="14.6"/><circle cx="489.9" cy="1064.2" r="16.3"/><circle cx="523.6" cy="1064.2" r="16.9"/><circle cx="557.4" cy="1064.2" r="16.5"/><circle cx="591.2" cy="1064.2" r="15.1"/><circle cx="625" cy="1064.2" r="13"/><circle cx="658.8" cy="1064.2" r="10.8"/><circle cx="692.6" cy="1064.2" r="9"/><circle cx="726.4" cy="1064.2" r="8"/><circle cx="760.1" cy="1064.2" r="7.8"/><circle cx="793.9" cy="1064.2" r="8.3"/><circle cx="827.7" cy="1064.2" r="9.4"/><circle cx="861.5" cy="1064.2" r="10.6"/><circle cx="895.3" cy="1064.2" r="11.4"/><circle cx="929.1" cy="1064.2" r="11.7"/><circle cx="962.8" cy="1064.2" r="11.2"/><circle cx="996.6" cy="1064.2" r="10"/><circle cx="16.9" cy="1098" r="7.6"/><circle cx="50.7" cy="1098" r="9.3"/><circle cx="84.5" cy="1098" r="10.5"/><circle cx="118.2" cy="1098" r="10.9"/><circle cx="152" cy="1098" r="10.6"/><circle cx="185.8" cy="1098" r="9.7"/><circle cx="219.6" cy="1098" r="8.6"/><circle cx="253.4" cy="1098" r="7.6"/><circle cx="287.2" cy="1098" r="7.2"/><circle cx="320.9" cy="1098" r="7.6"/><circle cx="354.7" cy="1098" r="8.8"/><circle cx="388.5" cy="1098" r="10.6"/><circle cx="422.3" cy="1098" r="12.7"/><circle cx="456.1" cy="1098" r="14.5"/><circle cx="489.9" cy="1098" r="15.6"/><circle cx="523.6" cy="1098" r="15.8"/><circle cx="557.4" cy="1098" r="15"/><circle cx="591.2" cy="1098" r="13.4"/><circle cx="625" cy="1098" r="11.5"/><circle cx="658.8" cy="1098" r="9.6"/><circle cx="692.6" cy="1098" r="8.3"/><circle cx="726.4" cy="1098" r="7.7"/><circle cx="760.1" cy="1098" r="7.9"/><circle cx="793.9" cy="1098" r="8.7"/><circle cx="827.7" cy="1098" r="9.9"/><circle cx="861.5" cy="1098" r="10.9"/><circle cx="895.3" cy="1098" r="11.5"/><circle cx="929.1" cy="1098" r="11.4"/><circle cx="962.8" cy="1098" r="10.5"/><circle cx="996.6" cy="1098" r="8.9"/><circle cx="16.9" cy="1131.8" r="8.7"/><circle cx="50.7" cy="1131.8" r="10.3"/><circle cx="84.5" cy="1131.8" r="11.2"/><circle cx="118.2" cy="1131.8" r="11.4"/><circle cx="152" cy="1131.8" r="10.9"/><circle cx="185.8" cy="1131.8" r="9.9"/><circle cx="219.6" cy="1131.8" r="8.8"/><circle cx="253.4" cy="1131.8" r="8"/><circle cx="287.2" cy="1131.8" r="7.7"/><circle cx="320.9" cy="1131.8" r="8.1"/><circle cx="354.7" cy="1131.8" r="9.2"/><circle cx="388.5" cy="1131.8" r="10.7"/><circle cx="422.3" cy="1131.8" r="12.4"/><circle cx="456.1" cy="1131.8" r="13.7"/><circle cx="489.9" cy="1131.8" r="14.4"/><circle cx="523.6" cy="1131.8" r="14.2"/><circle cx="557.4" cy="1131.8" r="13.2"/><circle cx="591.2" cy="1131.8" r="11.7"/><circle cx="625" cy="1131.8" r="10"/><circle cx="658.8" cy="1131.8" r="8.6"/><circle cx="692.6" cy="1131.8" r="7.8"/><circle cx="726.4" cy="1131.8" r="7.7"/><circle cx="760.1" cy="1131.8" r="8.3"/><circle cx="793.9" cy="1131.8" r="9.3"/><circle cx="827.7" cy="1131.8" r="10.4"/><circle cx="861.5" cy="1131.8" r="11.2"/><circle cx="895.3" cy="1131.8" r="11.4"/><circle cx="929.1" cy="1131.8" r="10.8"/><circle cx="962.8" cy="1131.8" r="9.6"/><circle cx="996.6" cy="1131.8" r="7.8"/><circle cx="16.9" cy="1165.5" r="9.6"/><circle cx="50.7" cy="1165.5" r="11.1"/><circle cx="84.5" cy="1165.5" r="11.8"/><circle cx="118.2" cy="1165.5" r="11.8"/><circle cx="152" cy="1165.5" r="11.1"/><circle cx="185.8" cy="1165.5" r="10.1"/><circle cx="219.6" cy="1165.5" r="9"/><circle cx="253.4" cy="1165.5" r="8.1"/><circle cx="287.2" cy="1165.5" r="7.8"/><circle cx="320.9" cy="1165.5" r="8.1"/><circle cx="354.7" cy="1165.5" r="9"/><circle cx="388.5" cy="1165.5" r="10.3"/><circle cx="422.3" cy="1165.5" r="11.5"/><circle cx="456.1" cy="1165.5" r="12.4"/><circle cx="489.9" cy="1165.5" r="12.7"/><circle cx="523.6" cy="1165.5" r="12.3"/><circle cx="557.4" cy="1165.5" r="11.3"/><circle cx="591.2" cy="1165.5" r="10"/><circle cx="625" cy="1165.5" r="8.8"/><circle cx="658.8" cy="1165.5" r="8"/><circle cx="692.6" cy="1165.5" r="7.7"/><circle cx="726.4" cy="1165.5" r="8.1"/><circle cx="760.1" cy="1165.5" r="8.9"/><circle cx="793.9" cy="1165.5" r="10"/><circle cx="827.7" cy="1165.5" r="10.9"/><circle cx="861.5" cy="1165.5" r="11.3"/><circle cx="895.3" cy="1165.5" r="11"/><circle cx="929.1" cy="1165.5" r="10.1"/><circle cx="962.8" cy="1165.5" r="8.5"/><circle cx="996.6" cy="1165.5" r="6.5"/><circle cx="16.9" cy="1199.3" r="10.5"/><circle cx="50.7" cy="1199.3" r="11.7"/><circle cx="84.5" cy="1199.3" r="12.2"/><circle cx="118.2" cy="1199.3" r="11.9"/><circle cx="152" cy="1199.3" r="11.1"/><circle cx="185.8" cy="1199.3" r="10"/><circle cx="219.6" cy="1199.3" r="8.8"/><circle cx="253.4" cy="1199.3" r="7.9"/><circle cx="287.2" cy="1199.3" r="7.6"/><circle cx="320.9" cy="1199.3" r="7.7"/><circle cx="354.7" cy="1199.3" r="8.4"/><circle cx="388.5" cy="1199.3" r="9.3"/><circle cx="422.3" cy="1199.3" r="10.2"/><circle cx="456.1" cy="1199.3" r="10.7"/><circle cx="489.9" cy="1199.3" r="10.8"/><circle cx="523.6" cy="1199.3" r="10.4"/><circle cx="557.4" cy="1199.3" r="9.6"/><circle cx="591.2" cy="1199.3" r="8.7"/><circle cx="625" cy="1199.3" r="8.1"/><circle cx="658.8" cy="1199.3" r="7.8"/><circle cx="692.6" cy="1199.3" r="8"/><circle cx="726.4" cy="1199.3" r="8.7"/><circle cx="760.1" cy="1199.3" r="9.7"/><circle cx="793.9" cy="1199.3" r="10.6"/><circle cx="827.7" cy="1199.3" r="11.2"/><circle cx="861.5" cy="1199.3" r="11.2"/><circle cx="895.3" cy="1199.3" r="10.5"/><circle cx="929.1" cy="1199.3" r="9.1"/><circle cx="962.8" cy="1199.3" r="7.2"/><circle cx="996.6" cy="1199.3" r="5.2"/><circle cx="16.9" cy="1233.1" r="11.1"/><circle cx="50.7" cy="1233.1" r="12"/><circle cx="84.5" cy="1233.1" r="12.3"/><circle cx="118.2" cy="1233.1" r="11.9"/><circle cx="152" cy="1233.1" r="10.9"/><circle cx="185.8" cy="1233.1" r="9.6"/><circle cx="219.6" cy="1233.1" r="8.4"/><circle cx="253.4" cy="1233.1" r="7.4"/><circle cx="287.2" cy="1233.1" r="6.9"/><circle cx="320.9" cy="1233.1" r="6.9"/><circle cx="354.7" cy="1233.1" r="7.3"/><circle cx="388.5" cy="1233.1" r="8"/><circle cx="422.3" cy="1233.1" r="8.6"/><circle cx="456.1" cy="1233.1" r="9"/><circle cx="489.9" cy="1233.1" r="9"/><circle cx="523.6" cy="1233.1" r="8.8"/><circle cx="557.4" cy="1233.1" r="8.3"/><circle cx="591.2" cy="1233.1" r="8"/><circle cx="625" cy="1233.1" r="7.8"/><circle cx="658.8" cy="1233.1" r="8"/><circle cx="692.6" cy="1233.1" r="8.7"/><circle cx="726.4" cy="1233.1" r="9.5"/><circle cx="760.1" cy="1233.1" r="10.4"/><circle cx="793.9" cy="1233.1" r="11.1"/><circle cx="827.7" cy="1233.1" r="11.3"/><circle cx="861.5" cy="1233.1" r="10.8"/><circle cx="895.3" cy="1233.1" r="9.6"/><circle cx="929.1" cy="1233.1" r="7.9"/><circle cx="962.8" cy="1233.1" r="5.9"/><circle cx="996.6" cy="1233.1" r="4"/></g><circle cx="499.9" cy="979.4" r="108.1" fill="#D9481F"/></svg>
