<svg xmlns="http://www.w3.org/2000/svg" viewBox="0 0 1250 1000" width="1250" height="1000"><rect width="1250" height="1000" fill="#D9481F"/><defs><clipPath id="m"><circle cx="765.3" cy="420.5" r="360"/></clipPath></defs>
<g stroke-width="1.2" opacity=".55"><line x1="-1000" y1="-1000" x2="-1000" y2="2000" stroke="#141413"/><line x1="-981.7" y1="-1000" x2="-981.7" y2="2000" stroke="#141413"/><line x1="-963.4" y1="-1000" x2="-963.4" y2="2000" stroke="#141413"/><line x1="-945.1" y1="-1000" x2="-945.1" y2="2000" stroke="#141413"/><line x1="-926.7" y1="-1000" x2="-926.7" y2="2000" stroke="#141413"/><line x1="-908.4" y1="-1000" x2="-908.4" y2="2000" stroke="#141413"/><line x1="-890.1" y1="-1000" x2="-890.1" y2="2000" stroke="#141413"/><line x1="-871.8" y1="-1000" x2="-871.8" y2="2000" stroke="#141413"/><line x1="-853.5" y1="-1000" x2="-853.5" y2="2000" stroke="#141413"/><line x1="-835.2" y1="-1000" x2="-835.2" y2="2000" stroke="#141413"/><line x1="-816.9" y1="-1000" x2="-816.9" y2="2000" stroke="#141413"/><line x1="-798.5" y1="-1000" x2="-798.5" y2="2000" stroke="#141413"/><line x1="-780.2" y1="-1000" x2="-780.2" y2="2000" stroke="#141413"/><line x1="-761.9" y1="-1000" x2="-761.9" y2="2000" stroke="#141413"/><line x1="-743.6" y1="-1000" x2="-743.6" y2="2000" stroke="#141413"/><line x1="-725.3" y1="-1000" x2="-725.3" y2="2000" stroke="#141413"/><line x1="-707" y1="-1000" x2="-707" y2="2000" stroke="#141413"/><line x1="-688.7" y1="-1000" x2="-688.7" y2="2000" stroke="#141413"/><line x1="-670.3" y1="-1000" x2="-670.3" y2="2000" stroke="#141413"/><line x1="-652" y1="-1000" x2="-652" y2="2000" stroke="#141413"/><line x1="-633.7" y1="-1000" x2="-633.7" y2="2000" stroke="#141413"/><line x1="-615.4" y1="-1000" x2="-615.4" y2="2000" stroke="#141413"/><line x1="-597.1" y1="-1000" x2="-597.1" y2="2000" stroke="#141413"/><line x1="-578.8" y1="-1000" x2="-578.8" y2="2000" stroke="#141413"/><line x1="-560.5" y1="-1000" x2="-560.5" y2="2000" stroke="#141413"/><line x1="-542.2" y1="-1000" x2="-542.2" y2="2000" stroke="#141413"/><line x1="-523.8" y1="-1000" x2="-523.8" y2="2000" stroke="#141413"/><line x1="-505.5" y1="-1000" x2="-505.5" y2="2000" stroke="#141413"/><line x1="-487.2" y1="-1000" x2="-487.2" y2="2000" stroke="#141413"/><line x1="-468.9" y1="-1000" x2="-468.9" y2="2000" stroke="#141413"/><line x1="-450.6" y1="-1000" x2="-450.6" y2="2000" stroke="#141413"/><line x1="-432.3" y1="-1000" x2="-432.3" y2="2000" stroke="#141413"/><line x1="-414" y1="-1000" x2="-414" y2="2000" stroke="#141413"/><line x1="-395.6" y1="-1000" x2="-395.6" y2="2000" stroke="#141413"/><line x1="-377.3" y1="-1000" x2="-377.3" y2="2000" stroke="#141413"/><line x1="-359" y1="-1000" x2="-359" y2="2000" stroke="#141413"/><line x1="-340.7" y1="-1000" x2="-340.7" y2="2000" stroke="#141413"/><line x1="-322.4" y1="-1000" x2="-322.4" y2="2000" stroke="#141413"/><line x1="-304.1" y1="-1000" x2="-304.1" y2="2000" stroke="#141413"/><line x1="-285.8" y1="-1000" x2="-285.8" y2="2000" stroke="#141413"/><line x1="-267.4" y1="-1000" x2="-267.4" y2="2000" stroke="#141413"/><line x1="-249.1" y1="-1000" x2="-249.1" y2="2000" stroke="#141413"/><line x1="-230.8" y1="-1000" x2="-230.8" y2="2000" stroke="#141413"/><line x1="-212.5" y1="-1000" x2="-212.5" y2="2000" stroke="#141413"/><line x1="-194.2" y1="-1000" x2="-194.2" y2="2000" stroke="#141413"/><line x1="-175.9" y1="-1000" x2="-175.9" y2="2000" stroke="#141413"/><line x1="-157.6" y1="-1000" x2="-157.6" y2="2000" stroke="#141413"/><line x1="-139.2" y1="-1000" x2="-139.2" y2="2000" stroke="#141413"/><line x1="-120.9" y1="-1000" x2="-120.9" y2="2000" stroke="#141413"/><line x1="-102.6" y1="-1000" x2="-102.6" y2="2000" stroke="#141413"/><line x1="-84.3" y1="-1000" x2="-84.3" y2="2000" stroke="#141413"/><line x1="-66" y1="-1000" x2="-66" y2="2000" stroke="#141413"/><line x1="-47.7" y1="-1000" x2="-47.7" y2="2000" stroke="#141413"/><line x1="-29.4" y1="-1000" x2="-29.4" y2="2000" stroke="#141413"/><line x1="-11" y1="-1000" x2="-11" y2="2000" stroke="#141413"/><line x1="7.3" y1="-1000" x2="7.3" y2="2000" stroke="#141413"/><line x1="25.6" y1="-1000" x2="25.6" y2="2000" stroke="#141413"/><line x1="43.9" y1="-1000" x2="43.9" y2="2000" stroke="#141413"/><line x1="62.2" y1="-1000" x2="62.2" y2="2000" stroke="#141413"/><line x1="80.5" y1="-1000" x2="80.5" y2="2000" stroke="#141413"/><line x1="98.8" y1="-1000" x2="98.8" y2="2000" stroke="#141413"/><line x1="117.1" y1="-1000" x2="117.1" y2="2000" stroke="#141413"/><line x1="135.5" y1="-1000" x2="135.5" y2="2000" stroke="#141413"/><line x1="153.8" y1="-1000" x2="153.8" y2="2000" stroke="#141413"/><line x1="172.1" y1="-1000" x2="172.1" y2="2000" stroke="#141413"/><line x1="190.4" y1="-1000" x2="190.4" y2="2000" stroke="#141413"/><line x1="208.7" y1="-1000" x2="208.7" y2="2000" stroke="#141413"/><line x1="227" y1="-1000" x2="227" y2="2000" stroke="#141413"/><line x1="245.3" y1="-1000" x2="245.3" y2="2000" stroke="#141413"/><line x1="263.7" y1="-1000" x2="263.7" y2="2000" stroke="#141413"/><line x1="282" y1="-1000" x2="282" y2="2000" stroke="#141413"/><line x1="300.3" y1="-1000" x2="300.3" y2="2000" stroke="#141413"/><line x1="318.6" y1="-1000" x2="318.6" y2="2000" stroke="#141413"/><line x1="336.9" y1="-1000" x2="336.9" y2="2000" stroke="#141413"/><line x1="355.2" y1="-1000" x2="355.2" y2="2000" stroke="#141413"/><line x1="373.5" y1="-1000" x2="373.5" y2="2000" stroke="#141413"/><line x1="391.9" y1="-1000" x2="391.9" y2="2000" stroke="#141413"/><line x1="410.2" y1="-1000" x2="410.2" y2="2000" stroke="#141413"/><line x1="428.5" y1="-1000" x2="428.5" y2="2000" stroke="#141413"/><line x1="446.8" y1="-1000" x2="446.8" y2="2000" stroke="#141413"/><line x1="465.1" y1="-1000" x2="465.1" y2="2000" stroke="#141413"/><line x1="483.4" y1="-1000" x2="483.4" y2="2000" stroke="#141413"/><line x1="501.7" y1="-1000" x2="501.7" y2="2000" stroke="#141413"/><line x1="520.1" y1="-1000" x2="520.1" y2="2000" stroke="#141413"/><line x1="538.4" y1="-1000" x2="538.4" y2="2000" stroke="#141413"/><line x1="556.7" y1="-1000" x2="556.7" y2="2000" stroke="#141413"/><line x1="575" y1="-1000" x2="575" y2="2000" stroke="#141413"/><line x1="593.3" y1="-1000" x2="593.3" y2="2000" stroke="#141413"/><line x1="611.6" y1="-1000" x2="611.6" y2="2000" stroke="#141413"/><line x1="629.9" y1="-1000" x2="629.9" y2="2000" stroke="#141413"/><line x1="648.3" y1="-1000" x2="648.3" y2="2000" stroke="#141413"/><line x1="666.6" y1="-1000" x2="666.6" y2="2000" stroke="#141413"/><line x1="684.9" y1="-1000" x2="684.9" y2="2000" stroke="#141413"/><line x1="703.2" y1="-1000" x2="703.2" y2="2000" stroke="#141413"/><line x1="721.5" y1="-1000" x2="721.5" y2="2000" stroke="#141413"/><line x1="739.8" y1="-1000" x2="739.8" y2="2000" stroke="#141413"/><line x1="758.1" y1="-1000" x2="758.1" y2="2000" stroke="#141413"/><line x1="776.5" y1="-1000" x2="776.5" y2="2000" stroke="#141413"/><line x1="794.8" y1="-1000" x2="794.8" y2="2000" stroke="#141413"/><line x1="813.1" y1="-1000" x2="813.1" y2="2000" stroke="#141413"/><line x1="831.4" y1="-1000" x2="831.4" y2="2000" stroke="#141413"/><line x1="849.7" y1="-1000" x2="849.7" y2="2000" stroke="#141413"/><line x1="868" y1="-1000" x2="868" y2="2000" stroke="#141413"/><line x1="886.3" y1="-1000" x2="886.3" y2="2000" stroke="#141413"/><line x1="904.6" y1="-1000" x2="904.6" y2="2000" stroke="#141413"/><line x1="923" y1="-1000" x2="923" y2="2000" stroke="#141413"/><line x1="941.3" y1="-1000" x2="941.3" y2="2000" stroke="#141413"/><line x1="959.6" y1="-1000" x2="959.6" y2="2000" stroke="#141413"/><line x1="977.9" y1="-1000" x2="977.9" y2="2000" stroke="#141413"/><line x1="996.2" y1="-1000" x2="996.2" y2="2000" stroke="#141413"/><line x1="1014.5" y1="-1000" x2="1014.5" y2="2000" stroke="#141413"/><line x1="1032.8" y1="-1000" x2="1032.8" y2="2000" stroke="#141413"/><line x1="1051.2" y1="-1000" x2="1051.2" y2="2000" stroke="#141413"/><line x1="1069.5" y1="-1000" x2="1069.5" y2="2000" stroke="#141413"/><line x1="1087.8" y1="-1000" x2="1087.8" y2="2000" stroke="#141413"/><line x1="1106.1" y1="-1000" x2="1106.1" y2="2000" stroke="#141413"/><line x1="1124.4" y1="-1000" x2="1124.4" y2="2000" stroke="#141413"/><line x1="1142.7" y1="-1000" x2="1142.7" y2="2000" stroke="#141413"/><line x1="1161" y1="-1000" x2="1161" y2="2000" stroke="#141413"/><line x1="1179.4" y1="-1000" x2="1179.4" y2="2000" stroke="#141413"/><line x1="1197.7" y1="-1000" x2="1197.7" y2="2000" stroke="#141413"/><line x1="1216" y1="-1000" x2="1216" y2="2000" stroke="#141413"/><line x1="1234.3" y1="-1000" x2="1234.3" y2="2000" stroke="#141413"/><line x1="1252.6" y1="-1000" x2="1252.6" y2="2000" stroke="#141413"/><line x1="1270.9" y1="-1000" x2="1270.9" y2="2000" stroke="#141413"/><line x1="1289.2" y1="-1000" x2="1289.2" y2="2000" stroke="#141413"/><line x1="1307.6" y1="-1000" x2="1307.6" y2="2000" stroke="#141413"/><line x1="1325.9" y1="-1000" x2="1325.9" y2="2000" stroke="#141413"/><line x1="1344.2" y1="-1000" x2="1344.2" y2="2000" stroke="#141413"/><line x1="1362.5" y1="-1000" x2="1362.5" y2="2000" stroke="#141413"/><line x1="1380.8" y1="-1000" x2="1380.8" y2="2000" stroke="#141413"/><line x1="1399.1" y1="-1000" x2="1399.1" y2="2000" stroke="#141413"/><line x1="1417.4" y1="-1000" x2="1417.4" y2="2000" stroke="#141413"/><line x1="1435.8" y1="-1000" x2="1435.8" y2="2000" stroke="#141413"/><line x1="1454.1" y1="-1000" x2="1454.1" y2="2000" stroke="#141413"/><line x1="1472.4" y1="-1000" x2="1472.4" y2="2000" stroke="#141413"/><line x1="1490.7" y1="-1000" x2="1490.7" y2="2000" stroke="#141413"/><line x1="1509" y1="-1000" x2="1509" y2="2000" stroke="#141413"/><line x1="1527.3" y1="-1000" x2="1527.3" y2="2000" stroke="#141413"/><line x1="1545.6" y1="-1000" x2="1545.6" y2="2000" stroke="#141413"/><line x1="1563.9" y1="-1000" x2="1563.9" y2="2000" stroke="#141413"/><line x1="1582.3" y1="-1000" x2="1582.3" y2="2000" stroke="#141413"/><line x1="1600.6" y1="-1000" x2="1600.6" y2="2000" stroke="#141413"/><line x1="1618.9" y1="-1000" x2="1618.9" y2="2000" stroke="#141413"/><line x1="1637.2" y1="-1000" x2="1637.2" y2="2000" stroke="#141413"/><line x1="1655.5" y1="-1000" x2="1655.5" y2="2000" stroke="#141413"/><line x1="1673.8" y1="-1000" x2="1673.8" y2="2000" stroke="#141413"/><line x1="1692.1" y1="-1000" x2="1692.1" y2="2000" stroke="#141413"/><line x1="1710.5" y1="-1000" x2="1710.5" y2="2000" stroke="#141413"/><line x1="1728.8" y1="-1000" x2="1728.8" y2="2000" stroke="#141413"/><line x1="1747.1" y1="-1000" x2="1747.1" y2="2000" stroke="#141413"/><line x1="1765.4" y1="-1000" x2="1765.4" y2="2000" stroke="#141413"/><line x1="1783.7" y1="-1000" x2="1783.7" y2="2000" stroke="#141413"/><line x1="1802" y1="-1000" x2="1802" y2="2000" stroke="#141413"/><line x1="1820.3" y1="-1000" x2="1820.3" y2="2000" stroke="#141413"/><line x1="1838.7" y1="-1000" x2="1838.7" y2="2000" stroke="#141413"/><line x1="1857" y1="-1000" x2="1857" y2="2000" stroke="#141413"/><line x1="1875.3" y1="-1000" x2="1875.3" y2="2000" stroke="#141413"/><line x1="1893.6" y1="-1000" x2="1893.6" y2="2000" stroke="#141413"/><line x1="1911.9" y1="-1000" x2="1911.9" y2="2000" stroke="#141413"/><line x1="1930.2" y1="-1000" x2="1930.2" y2="2000" stroke="#141413"/><line x1="1948.5" y1="-1000" x2="1948.5" y2="2000" stroke="#141413"/><line x1="1966.9" y1="-1000" x2="1966.9" y2="2000" stroke="#141413"/><line x1="1985.2" y1="-1000" x2="1985.2" y2="2000" stroke="#141413"/><line x1="2003.5" y1="-1000" x2="2003.5" y2="2000" stroke="#141413"/><line x1="2021.8" y1="-1000" x2="2021.8" y2="2000" stroke="#141413"/><line x1="2040.1" y1="-1000" x2="2040.1" y2="2000" stroke="#141413"/><line x1="2058.4" y1="-1000" x2="2058.4" y2="2000" stroke="#141413"/><line x1="2076.7" y1="-1000" x2="2076.7" y2="2000" stroke="#141413"/><line x1="2095.1" y1="-1000" x2="2095.1" y2="2000" stroke="#141413"/><line x1="2113.4" y1="-1000" x2="2113.4" y2="2000" stroke="#141413"/><line x1="2131.7" y1="-1000" x2="2131.7" y2="2000" stroke="#141413"/><line x1="2150" y1="-1000" x2="2150" y2="2000" stroke="#141413"/><line x1="2168.3" y1="-1000" x2="2168.3" y2="2000" stroke="#141413"/><line x1="2186.6" y1="-1000" x2="2186.6" y2="2000" stroke="#141413"/><line x1="2204.9" y1="-1000" x2="2204.9" y2="2000" stroke="#141413"/><line x1="2223.2" y1="-1000" x2="2223.2" y2="2000" stroke="#141413"/><line x1="2241.6" y1="-1000" x2="2241.6" y2="2000" stroke="#141413"/><line x1="2259.9" y1="-1000" x2="2259.9" y2="2000" stroke="#141413"/><line x1="2278.2" y1="-1000" x2="2278.2" y2="2000" stroke="#141413"/><line x1="2296.5" y1="-1000" x2="2296.5" y2="2000" stroke="#141413"/><line x1="2314.8" y1="-1000" x2="2314.8" y2="2000" stroke="#141413"/><line x1="2333.1" y1="-1000" x2="2333.1" y2="2000" stroke="#141413"/><line x1="2351.4" y1="-1000" x2="2351.4" y2="2000" stroke="#141413"/><line x1="2369.8" y1="-1000" x2="2369.8" y2="2000" stroke="#141413"/></g>
<g stroke-width="1.2" clip-path="url(#m)"><rect width="1250" height="1000" fill="#D9481F"/><g transform="rotate(4.9 765.3 420.5)"><line x1="-1000" y1="-1000" x2="-1000" y2="2000" stroke="#F4F2ED"/><line x1="-981.7" y1="-1000" x2="-981.7" y2="2000" stroke="#F4F2ED"/><line x1="-963.4" y1="-1000" x2="-963.4" y2="2000" stroke="#F4F2ED"/><line x1="-945.1" y1="-1000" x2="-945.1" y2="2000" stroke="#F4F2ED"/><line x1="-926.7" y1="-1000" x2="-926.7" y2="2000" stroke="#F4F2ED"/><line x1="-908.4" y1="-1000" x2="-908.4" y2="2000" stroke="#F4F2ED"/><line x1="-890.1" y1="-1000" x2="-890.1" y2="2000" stroke="#F4F2ED"/><line x1="-871.8" y1="-1000" x2="-871.8" y2="2000" stroke="#F4F2ED"/><line x1="-853.5" y1="-1000" x2="-853.5" y2="2000" stroke="#F4F2ED"/><line x1="-835.2" y1="-1000" x2="-835.2" y2="2000" stroke="#F4F2ED"/><line x1="-816.9" y1="-1000" x2="-816.9" y2="2000" stroke="#F4F2ED"/><line x1="-798.5" y1="-1000" x2="-798.5" y2="2000" stroke="#F4F2ED"/><line x1="-780.2" y1="-1000" x2="-780.2" y2="2000" stroke="#F4F2ED"/><line x1="-761.9" y1="-1000" x2="-761.9" y2="2000" stroke="#F4F2ED"/><line x1="-743.6" y1="-1000" x2="-743.6" y2="2000" stroke="#F4F2ED"/><line x1="-725.3" y1="-1000" x2="-725.3" y2="2000" stroke="#F4F2ED"/><line x1="-707" y1="-1000" x2="-707" y2="2000" stroke="#F4F2ED"/><line x1="-688.7" y1="-1000" x2="-688.7" y2="2000" stroke="#F4F2ED"/><line x1="-670.3" y1="-1000" x2="-670.3" y2="2000" stroke="#F4F2ED"/><line x1="-652" y1="-1000" x2="-652" y2="2000" stroke="#F4F2ED"/><line x1="-633.7" y1="-1000" x2="-633.7" y2="2000" stroke="#F4F2ED"/><line x1="-615.4" y1="-1000" x2="-615.4" y2="2000" stroke="#F4F2ED"/><line x1="-597.1" y1="-1000" x2="-597.1" y2="2000" stroke="#F4F2ED"/><line x1="-578.8" y1="-1000" x2="-578.8" y2="2000" stroke="#F4F2ED"/><line x1="-560.5" y1="-1000" x2="-560.5" y2="2000" stroke="#F4F2ED"/><line x1="-542.2" y1="-1000" x2="-542.2" y2="2000" stroke="#F4F2ED"/><line x1="-523.8" y1="-1000" x2="-523.8" y2="2000" stroke="#F4F2ED"/><line x1="-505.5" y1="-1000" x2="-505.5" y2="2000" stroke="#F4F2ED"/><line x1="-487.2" y1="-1000" x2="-487.2" y2="2000" stroke="#F4F2ED"/><line x1="-468.9" y1="-1000" x2="-468.9" y2="2000" stroke="#F4F2ED"/><line x1="-450.6" y1="-1000" x2="-450.6" y2="2000" stroke="#F4F2ED"/><line x1="-432.3" y1="-1000" x2="-432.3" y2="2000" stroke="#F4F2ED"/><line x1="-414" y1="-1000" x2="-414" y2="2000" stroke="#F4F2ED"/><line x1="-395.6" y1="-1000" x2="-395.6" y2="2000" stroke="#F4F2ED"/><line x1="-377.3" y1="-1000" x2="-377.3" y2="2000" stroke="#F4F2ED"/><line x1="-359" y1="-1000" x2="-359" y2="2000" stroke="#F4F2ED"/><line x1="-340.7" y1="-1000" x2="-340.7" y2="2000" stroke="#F4F2ED"/><line x1="-322.4" y1="-1000" x2="-322.4" y2="2000" stroke="#F4F2ED"/><line x1="-304.1" y1="-1000" x2="-304.1" y2="2000" stroke="#F4F2ED"/><line x1="-285.8" y1="-1000" x2="-285.8" y2="2000" stroke="#F4F2ED"/><line x1="-267.4" y1="-1000" x2="-267.4" y2="2000" stroke="#F4F2ED"/><line x1="-249.1" y1="-1000" x2="-249.1" y2="2000" stroke="#F4F2ED"/><line x1="-230.8" y1="-1000" x2="-230.8" y2="2000" stroke="#F4F2ED"/><line x1="-212.5" y1="-1000" x2="-212.5" y2="2000" stroke="#F4F2ED"/><line x1="-194.2" y1="-1000" x2="-194.2" y2="2000" stroke="#F4F2ED"/><line x1="-175.9" y1="-1000" x2="-175.9" y2="2000" stroke="#F4F2ED"/><line x1="-157.6" y1="-1000" x2="-157.6" y2="2000" stroke="#F4F2ED"/><line x1="-139.2" y1="-1000" x2="-139.2" y2="2000" stroke="#F4F2ED"/><line x1="-120.9" y1="-1000" x2="-120.9" y2="2000" stroke="#F4F2ED"/><line x1="-102.6" y1="-1000" x2="-102.6" y2="2000" stroke="#F4F2ED"/><line x1="-84.3" y1="-1000" x2="-84.3" y2="2000" stroke="#F4F2ED"/><line x1="-66" y1="-1000" x2="-66" y2="2000" stroke="#F4F2ED"/><line x1="-47.7" y1="-1000" x2="-47.7" y2="2000" stroke="#F4F2ED"/><line x1="-29.4" y1="-1000" x2="-29.4" y2="2000" stroke="#F4F2ED"/><line x1="-11" y1="-1000" x2="-11" y2="2000" stroke="#F4F2ED"/><line x1="7.3" y1="-1000" x2="7.3" y2="2000" stroke="#F4F2ED"/><line x1="25.6" y1="-1000" x2="25.6" y2="2000" stroke="#F4F2ED"/><line x1="43.9" y1="-1000" x2="43.9" y2="2000" stroke="#F4F2ED"/><line x1="62.2" y1="-1000" x2="62.2" y2="2000" stroke="#F4F2ED"/><line x1="80.5" y1="-1000" x2="80.5" y2="2000" stroke="#F4F2ED"/><line x1="98.8" y1="-1000" x2="98.8" y2="2000" stroke="#F4F2ED"/><line x1="117.1" y1="-1000" x2="117.1" y2="2000" stroke="#F4F2ED"/><line x1="135.5" y1="-1000" x2="135.5" y2="2000" stroke="#F4F2ED"/><line x1="153.8" y1="-1000" x2="153.8" y2="2000" stroke="#F4F2ED"/><line x1="172.1" y1="-1000" x2="172.1" y2="2000" stroke="#F4F2ED"/><line x1="190.4" y1="-1000" x2="190.4" y2="2000" stroke="#F4F2ED"/><line x1="208.7" y1="-1000" x2="208.7" y2="2000" stroke="#F4F2ED"/><line x1="227" y1="-1000" x2="227" y2="2000" stroke="#F4F2ED"/><line x1="245.3" y1="-1000" x2="245.3" y2="2000" stroke="#F4F2ED"/><line x1="263.7" y1="-1000" x2="263.7" y2="2000" stroke="#F4F2ED"/><line x1="282" y1="-1000" x2="282" y2="2000" stroke="#F4F2ED"/><line x1="300.3" y1="-1000" x2="300.3" y2="2000" stroke="#F4F2ED"/><line x1="318.6" y1="-1000" x2="318.6" y2="2000" stroke="#F4F2ED"/><line x1="336.9" y1="-1000" x2="336.9" y2="2000" stroke="#F4F2ED"/><line x1="355.2" y1="-1000" x2="355.2" y2="2000" stroke="#F4F2ED"/><line x1="373.5" y1="-1000" x2="373.5" y2="2000" stroke="#F4F2ED"/><line x1="391.9" y1="-1000" x2="391.9" y2="2000" stroke="#F4F2ED"/><line x1="410.2" y1="-1000" x2="410.2" y2="2000" stroke="#F4F2ED"/><line x1="428.5" y1="-1000" x2="428.5" y2="2000" stroke="#F4F2ED"/><line x1="446.8" y1="-1000" x2="446.8" y2="2000" stroke="#F4F2ED"/><line x1="465.1" y1="-1000" x2="465.1" y2="2000" stroke="#F4F2ED"/><line x1="483.4" y1="-1000" x2="483.4" y2="2000" stroke="#F4F2ED"/><line x1="501.7" y1="-1000" x2="501.7" y2="2000" stroke="#F4F2ED"/><line x1="520.1" y1="-1000" x2="520.1" y2="2000" stroke="#F4F2ED"/><line x1="538.4" y1="-1000" x2="538.4" y2="2000" stroke="#F4F2ED"/><line x1="556.7" y1="-1000" x2="556.7" y2="2000" stroke="#F4F2ED"/><line x1="575" y1="-1000" x2="575" y2="2000" stroke="#F4F2ED"/><line x1="593.3" y1="-1000" x2="593.3" y2="2000" stroke="#F4F2ED"/><line x1="611.6" y1="-1000" x2="611.6" y2="2000" stroke="#F4F2ED"/><line x1="629.9" y1="-1000" x2="629.9" y2="2000" stroke="#F4F2ED"/><line x1="648.3" y1="-1000" x2="648.3" y2="2000" stroke="#F4F2ED"/><line x1="666.6" y1="-1000" x2="666.6" y2="2000" stroke="#F4F2ED"/><line x1="684.9" y1="-1000" x2="684.9" y2="2000" stroke="#F4F2ED"/><line x1="703.2" y1="-1000" x2="703.2" y2="2000" stroke="#F4F2ED"/><line x1="721.5" y1="-1000" x2="721.5" y2="2000" stroke="#F4F2ED"/><line x1="739.8" y1="-1000" x2="739.8" y2="2000" stroke="#F4F2ED"/><line x1="758.1" y1="-1000" x2="758.1" y2="2000" stroke="#F4F2ED"/><line x1="776.5" y1="-1000" x2="776.5" y2="2000" stroke="#F4F2ED"/><line x1="794.8" y1="-1000" x2="794.8" y2="2000" stroke="#F4F2ED"/><line x1="813.1" y1="-1000" x2="813.1" y2="2000" stroke="#F4F2ED"/><line x1="831.4" y1="-1000" x2="831.4" y2="2000" stroke="#F4F2ED"/><line x1="849.7" y1="-1000" x2="849.7" y2="2000" stroke="#F4F2ED"/><line x1="868" y1="-1000" x2="868" y2="2000" stroke="#F4F2ED"/><line x1="886.3" y1="-1000" x2="886.3" y2="2000" stroke="#F4F2ED"/><line x1="904.6" y1="-1000" x2="904.6" y2="2000" stroke="#F4F2ED"/><line x1="923" y1="-1000" x2="923" y2="2000" stroke="#F4F2ED"/><line x1="941.3" y1="-1000" x2="941.3" y2="2000" stroke="#F4F2ED"/><line x1="959.6" y1="-1000" x2="959.6" y2="2000" stroke="#F4F2ED"/><line x1="977.9" y1="-1000" x2="977.9" y2="2000" stroke="#F4F2ED"/><line x1="996.2" y1="-1000" x2="996.2" y2="2000" stroke="#F4F2ED"/><line x1="1014.5" y1="-1000" x2="1014.5" y2="2000" stroke="#F4F2ED"/><line x1="1032.8" y1="-1000" x2="1032.8" y2="2000" stroke="#F4F2ED"/><line x1="1051.2" y1="-1000" x2="1051.2" y2="2000" stroke="#F4F2ED"/><line x1="1069.5" y1="-1000" x2="1069.5" y2="2000" stroke="#F4F2ED"/><line x1="1087.8" y1="-1000" x2="1087.8" y2="2000" stroke="#F4F2ED"/><line x1="1106.1" y1="-1000" x2="1106.1" y2="2000" stroke="#F4F2ED"/><line x1="1124.4" y1="-1000" x2="1124.4" y2="2000" stroke="#F4F2ED"/><line x1="1142.7" y1="-1000" x2="1142.7" y2="2000" stroke="#F4F2ED"/><line x1="1161" y1="-1000" x2="1161" y2="2000" stroke="#F4F2ED"/><line x1="1179.4" y1="-1000" x2="1179.4" y2="2000" stroke="#F4F2ED"/><line x1="1197.7" y1="-1000" x2="1197.7" y2="2000" stroke="#F4F2ED"/><line x1="1216" y1="-1000" x2="1216" y2="2000" stroke="#F4F2ED"/><line x1="1234.3" y1="-1000" x2="1234.3" y2="2000" stroke="#F4F2ED"/><line x1="1252.6" y1="-1000" x2="1252.6" y2="2000" stroke="#F4F2ED"/><line x1="1270.9" y1="-1000" x2="1270.9" y2="2000" stroke="#F4F2ED"/><line x1="1289.2" y1="-1000" x2="1289.2" y2="2000" stroke="#F4F2ED"/><line x1="1307.6" y1="-1000" x2="1307.6" y2="2000" stroke="#F4F2ED"/><line x1="1325.9" y1="-1000" x2="1325.9" y2="2000" stroke="#F4F2ED"/><line x1="1344.2" y1="-1000" x2="1344.2" y2="2000" stroke="#F4F2ED"/><line x1="1362.5" y1="-1000" x2="1362.5" y2="2000" stroke="#F4F2ED"/><line x1="1380.8" y1="-1000" x2="1380.8" y2="2000" stroke="#F4F2ED"/><line x1="1399.1" y1="-1000" x2="1399.1" y2="2000" stroke="#F4F2ED"/><line x1="1417.4" y1="-1000" x2="1417.4" y2="2000" stroke="#F4F2ED"/><line x1="1435.8" y1="-1000" x2="1435.8" y2="2000" stroke="#F4F2ED"/><line x1="1454.1" y1="-1000" x2="1454.1" y2="2000" stroke="#F4F2ED"/><line x1="1472.4" y1="-1000" x2="1472.4" y2="2000" stroke="#F4F2ED"/><line x1="1490.7" y1="-1000" x2="1490.7" y2="2000" stroke="#F4F2ED"/><line x1="1509" y1="-1000" x2="1509" y2="2000" stroke="#F4F2ED"/><line x1="1527.3" y1="-1000" x2="1527.3" y2="2000" stroke="#F4F2ED"/><line x1="1545.6" y1="-1000" x2="1545.6" y2="2000" stroke="#F4F2ED"/><line x1="1563.9" y1="-1000" x2="1563.9" y2="2000" stroke="#F4F2ED"/><line x1="1582.3" y1="-1000" x2="1582.3" y2="2000" stroke="#F4F2ED"/><line x1="1600.6" y1="-1000" x2="1600.6" y2="2000" stroke="#F4F2ED"/><line x1="1618.9" y1="-1000" x2="1618.9" y2="2000" stroke="#F4F2ED"/><line x1="1637.2" y1="-1000" x2="1637.2" y2="2000" stroke="#F4F2ED"/><line x1="1655.5" y1="-1000" x2="1655.5" y2="2000" stroke="#F4F2ED"/><line x1="1673.8" y1="-1000" x2="1673.8" y2="2000" stroke="#F4F2ED"/><line x1="1692.1" y1="-1000" x2="1692.1" y2="2000" stroke="#F4F2ED"/><line x1="1710.5" y1="-1000" x2="1710.5" y2="2000" stroke="#F4F2ED"/><line x1="1728.8" y1="-1000" x2="1728.8" y2="2000" stroke="#F4F2ED"/><line x1="1747.1" y1="-1000" x2="1747.1" y2="2000" stroke="#F4F2ED"/><line x1="1765.4" y1="-1000" x2="1765.4" y2="2000" stroke="#F4F2ED"/><line x1="1783.7" y1="-1000" x2="1783.7" y2="2000" stroke="#F4F2ED"/><line x1="1802" y1="-1000" x2="1802" y2="2000" stroke="#F4F2ED"/><line x1="1820.3" y1="-1000" x2="1820.3" y2="2000" stroke="#F4F2ED"/><line x1="1838.7" y1="-1000" x2="1838.7" y2="2000" stroke="#F4F2ED"/><line x1="1857" y1="-1000" x2="1857" y2="2000" stroke="#F4F2ED"/><line x1="1875.3" y1="-1000" x2="1875.3" y2="2000" stroke="#F4F2ED"/><line x1="1893.6" y1="-1000" x2="1893.6" y2="2000" stroke="#F4F2ED"/><line x1="1911.9" y1="-1000" x2="1911.9" y2="2000" stroke="#F4F2ED"/><line x1="1930.2" y1="-1000" x2="1930.2" y2="2000" stroke="#F4F2ED"/><line x1="1948.5" y1="-1000" x2="1948.5" y2="2000" stroke="#F4F2ED"/><line x1="1966.9" y1="-1000" x2="1966.9" y2="2000" stroke="#F4F2ED"/><line x1="1985.2" y1="-1000" x2="1985.2" y2="2000" stroke="#F4F2ED"/><line x1="2003.5" y1="-1000" x2="2003.5" y2="2000" stroke="#F4F2ED"/><line x1="2021.8" y1="-1000" x2="2021.8" y2="2000" stroke="#F4F2ED"/><line x1="2040.1" y1="-1000" x2="2040.1" y2="2000" stroke="#F4F2ED"/><line x1="2058.4" y1="-1000" x2="2058.4" y2="2000" stroke="#F4F2ED"/><line x1="2076.7" y1="-1000" x2="2076.7" y2="2000" stroke="#F4F2ED"/><line x1="2095.1" y1="-1000" x2="2095.1" y2="2000" stroke="#F4F2ED"/><line x1="2113.4" y1="-1000" x2="2113.4" y2="2000" stroke="#F4F2ED"/><line x1="2131.7" y1="-1000" x2="2131.7" y2="2000" stroke="#F4F2ED"/><line x1="2150" y1="-1000" x2="2150" y2="2000" stroke="#F4F2ED"/><line x1="2168.3" y1="-1000" x2="2168.3" y2="2000" stroke="#F4F2ED"/><line x1="2186.6" y1="-1000" x2="2186.6" y2="2000" stroke="#F4F2ED"/><line x1="2204.9" y1="-1000" x2="2204.9" y2="2000" stroke="#F4F2ED"/><line x1="2223.2" y1="-1000" x2="2223.2" y2="2000" stroke="#F4F2ED"/><line x1="2241.6" y1="-1000" x2="2241.6" y2="2000" stroke="#F4F2ED"/><line x1="2259.9" y1="-1000" x2="2259.9" y2="2000" stroke="#F4F2ED"/><line x1="2278.2" y1="-1000" x2="2278.2" y2="2000" stroke="#F4F2ED"/><line x1="2296.5" y1="-1000" x2="2296.5" y2="2000" stroke="#F4F2ED"/><line x1="2314.8" y1="-1000" x2="2314.8" y2="2000" stroke="#F4F2ED"/><line x1="2333.1" y1="-1000" x2="2333.1" y2="2000" stroke="#F4F2ED"/><line x1="2351.4" y1="-1000" x2="2351.4" y2="2000" stroke="#F4F2ED"/><line x1="2369.8" y1="-1000" x2="2369.8" y2="2000" stroke="#F4F2ED"/></g></g></svg>
