<svg xmlns="http://www.w3.org/2000/svg" viewBox="0 0 1000 1000" width="1000" height="1000"><rect width="1000" height="1000" fill="#141413"/><g stroke="#F4F2ED" stroke-width=".6" opacity=".4"><line x1="45.5" y1="0" x2="45.5" y2="1000"/><line x1="197" y1="0" x2="197" y2="1000"/><line x1="348.5" y1="0" x2="348.5" y2="1000"/><line x1="500" y1="0" x2="500" y2="1000"/><line x1="651.5" y1="0" x2="651.5" y2="1000"/><line x1="803" y1="0" x2="803" y2="1000"/><line x1="954.5" y1="0" x2="954.5" y2="1000"/></g><path d="M45.5 45.5 L197 45.5 A151.5 151.5 0 0 1 45.5 197Z" fill="#D9481F"/><rect x="348.5" y="121.2" width="151.5" height="75.8" fill="#F4F2ED"/><circle cx="727.3" cy="121.2" r="63.6" fill="#D9481F"/><circle cx="878.8" cy="121.2" r="63.6" fill="#F4F2ED"/><rect x="45.5" y="272.7" width="151.5" height="75.8" fill="#F4F2ED"/><rect x="197" y="197" width="151.5" height="151.5" fill="#D9481F"/><path d="M348.5 348.5 L500 348.5 A151.5 151.5 0 0 0 348.5 197Z" fill="#F4F2ED"/><rect x="500" y="272.7" width="151.5" height="75.8" fill="#F4F2ED"/><circle cx="727.3" cy="272.7" r="63.6" fill="#D9481F"/><path d="M803 348.5 L954.5 348.5 A151.5 151.5 0 0 0 803 197Z" fill="#F4F2ED"/><path d="M348.5 348.5 L197 348.5 A151.5 151.5 0 0 0 348.5 500Z" fill="#F4F2ED"/><path d="M500 348.5 L651.5 348.5 A151.5 151.5 0 0 1 500 500Z" fill="#F4F2ED"/><circle cx="727.3" cy="424.2" r="63.6" fill="#F4F2ED"/><path d="M954.5 500 L803 500 A151.5 151.5 0 0 1 954.5 348.5Z" fill="#F4F2ED"/><path d="M348.5 500 L500 500 A151.5 151.5 0 0 1 348.5 651.5Z" fill="#F4F2ED"/><path d="M803 500 L651.5 500 A151.5 151.5 0 0 0 803 651.5Z" fill="#F4F2ED"/><path d="M197 803 L45.5 803 A151.5 151.5 0 0 1 197 651.5Z" fill="#D9481F"/><rect x="348.5" y="651.5" width="151.5" height="151.5" fill="#F4F2ED"/><circle cx="727.3" cy="727.3" r="63.6" fill="#F4F2ED"/><path d="M803 651.5 L954.5 651.5 A151.5 151.5 0 0 1 803 803Z" fill="#F4F2ED"/><circle cx="121.2" cy="878.8" r="63.6" fill="#F4F2ED"/><path d="M197 954.5 L348.5 954.5 A151.5 151.5 0 0 0 197 803Z" fill="#F4F2ED"/><path d="M348.5 803 L500 803 A151.5 151.5 0 0 1 348.5 954.5Z" fill="#F4F2ED"/><path d="M500 803 L651.5 803 A151.5 151.5 0 0 1 500 954.5Z" fill="#F4F2ED"/><circle cx="727.3" cy="878.8" r="63.6" fill="#D9481F"/><path d="M803 803 L954.5 803 A151.5 151.5 0 0 1 803 954.5Z" fill="#D9481F"/></svg>
