<svg xmlns="http://www.w3.org/2000/svg" viewBox="0 0 1600 1000" width="1600" height="1000"><rect width="1600" height="1000" fill="#141413"/><g transform="translate(815.4 533.3) rotate(13.9)" fill="none" stroke="#F4F2ED" stroke-width="1.4"><ellipse cx="0" cy="-361.2" rx="82.4" ry="21.7"/><ellipse cx="0" cy="-333.8" rx="160.7" ry="42.3"/><ellipse cx="0" cy="-289.6" rx="231" ry="60.8"/><ellipse cx="0" cy="-231" rx="289.6" ry="76.2"/><ellipse cx="0" cy="-160.7" rx="333.8" ry="87.8"/><ellipse cx="0" cy="-82.4" rx="361.2" ry="95"/><ellipse cx="0" cy="0" rx="370.5" ry="97.5"/><ellipse cx="0" cy="82.4" rx="361.2" ry="95"/><ellipse cx="0" cy="160.7" rx="333.8" ry="87.8"/><ellipse cx="0" cy="231" rx="289.6" ry="76.2"/><ellipse cx="0" cy="289.6" rx="231" ry="60.8"/><ellipse cx="0" cy="333.8" rx="160.7" ry="42.3"/><ellipse cx="0" cy="361.2" rx="82.4" ry="21.7"/><ellipse cx="0" cy="0" rx="370.5" ry="370.5"/><ellipse cx="0" cy="0" rx="348.1" ry="370.5"/><ellipse cx="0" cy="0" rx="283.8" ry="370.5"/><ellipse cx="0" cy="0" rx="185.2" ry="370.5"/><ellipse cx="0" cy="0" rx="64.3" ry="370.5"/><ellipse cx="0" cy="0" rx="64.3" ry="370.5"/><ellipse cx="0" cy="0" rx="185.2" ry="370.5"/><ellipse cx="0" cy="0" rx="283.8" ry="370.5"/><ellipse cx="0" cy="0" rx="348.1" ry="370.5"/><ellipse cx="0" cy="0" rx="574.2" ry="118.5" stroke-width="3"/></g>
<circle cx="383.4" cy="386" r="57.8" fill="#D9481F"/>
<text x="80" y="940" font-family="Menlo, Consolas, Liberation Mono, monospace" font-size="28.8" fill="#F4F2ED">R=370.5 / T=26.3 / ROT 13.9°</text></svg>
